<svg xmlns="http://www.w3.org/2000/svg" viewBox="0 0 500 500"><g id="freepik--background-complete--inject-65"><path d="M451,243.89H330.64s11.94-32.6,30.31-32.6,24.12,22.5,24.12,22.5,12.4-12.22,22.58-12.22,19,16.15,19,16.15S441.07,229,451,243.89Z" style="fill:#ebebeb"></path><path d="M342.2,56H285.94s12.57-18.21,22.47-18.21S321.25,50,321.25,50s7-5.67,13.46-4.66S342.2,56,342.2,56Z" style="fill:#ebebeb"></path><path d="M415,112.27H358.73S371.3,94.05,381.2,94.05,394,106.2,394,106.2s7-5.67,13.46-4.66S415,112.27,415,112.27Z" style="fill:#ebebeb"></path><path d="M208,183H151.78s12.57-18.22,22.47-18.22,12.83,12.15,12.83,12.15,7-5.67,13.47-4.66S208,183,208,183Z" style="fill:#ebebeb"></path><path d="M105.23,242.16H49S61.54,224,71.44,224s12.84,12.14,12.84,12.14,7-5.67,13.46-4.65S105.23,242.16,105.23,242.16Z" style="fill:#ebebeb"></path><path d="M179.91,129.27H70.32s15-33.5,31.06-35.6,23.73,24.9,23.73,24.9,10.36-9.54,18.5-9.54S158,121.59,158,121.59,174.32,113,179.91,129.27Z" style="fill:#ebebeb"></path><rect x="338.07" y="268.6" width="33.16" height="173.85" style="fill:#dbdbdb"></rect><rect x="343.21" y="274.25" width="6.45" height="6.64" style="fill:#ebebeb"></rect><rect x="351.46" y="274.25" width="6.45" height="6.64" style="fill:#ebebeb"></rect><rect x="343.21" y="285.51" width="6.45" height="6.64" style="fill:#ebebeb"></rect><rect x="351.46" y="285.51" width="6.45" height="6.64" style="fill:#ebebeb"></rect><rect x="343.21" y="296.78" width="6.45" height="6.64" style="fill:#ebebeb"></rect><rect x="351.46" y="296.78" width="6.45" height="6.64" style="fill:#ebebeb"></rect><rect x="343.21" y="308.05" width="6.45" height="6.64" style="fill:#ebebeb"></rect><rect x="351.46" y="308.05" width="6.45" height="6.64" style="fill:#ebebeb"></rect><rect x="343.21" y="319.32" width="6.45" height="6.64" style="fill:#ebebeb"></rect><rect x="351.46" y="319.32" width="6.45" height="6.64" style="fill:#ebebeb"></rect><rect x="343.21" y="330.59" width="6.45" height="6.64" style="fill:#ebebeb"></rect><rect x="351.46" y="330.59" width="6.45" height="6.64" style="fill:#ebebeb"></rect><rect x="343.21" y="341.86" width="6.45" height="6.64" style="fill:#ebebeb"></rect><rect x="351.46" y="341.86" width="6.45" height="6.64" style="fill:#ebebeb"></rect><rect x="343.21" y="353.13" width="6.45" height="6.64" style="fill:#ebebeb"></rect><rect x="351.46" y="353.13" width="6.45" height="6.64" style="fill:#ebebeb"></rect><rect x="343.21" y="364.4" width="6.45" height="6.64" style="fill:#ebebeb"></rect><rect x="351.46" y="364.4" width="6.45" height="6.64" style="fill:#ebebeb"></rect><rect x="343.21" y="375.67" width="6.45" height="6.64" style="fill:#ebebeb"></rect><rect x="351.46" y="375.67" width="6.45" height="6.64" style="fill:#ebebeb"></rect><rect x="343.21" y="386.94" width="6.45" height="6.64" style="fill:#ebebeb"></rect><rect x="351.46" y="386.94" width="6.45" height="6.64" style="fill:#ebebeb"></rect><rect x="343.21" y="398.21" width="6.45" height="6.64" style="fill:#ebebeb"></rect><rect x="351.46" y="398.21" width="6.45" height="6.64" style="fill:#ebebeb"></rect><rect x="343.21" y="409.48" width="6.45" height="6.64" style="fill:#ebebeb"></rect><rect x="351.46" y="409.48" width="6.45" height="6.64" style="fill:#ebebeb"></rect><rect x="343.21" y="420.75" width="6.45" height="6.64" style="fill:#ebebeb"></rect><rect x="359.64" y="420.75" width="6.45" height="6.64" transform="translate(725.72 848.14) rotate(180)" style="fill:#ebebeb"></rect><rect x="359.64" y="409.48" width="6.45" height="6.64" transform="translate(725.72 825.6) rotate(180)" style="fill:#ebebeb"></rect><rect x="359.64" y="398.21" width="6.45" height="6.64" transform="translate(725.72 803.06) rotate(180)" style="fill:#ebebeb"></rect><rect x="359.64" y="386.94" width="6.45" height="6.64" transform="translate(725.72 780.52) rotate(180)" style="fill:#ebebeb"></rect><rect x="359.64" y="375.67" width="6.45" height="6.64" transform="translate(725.72 757.98) rotate(180)" style="fill:#ebebeb"></rect><rect x="359.64" y="364.4" width="6.45" height="6.64" transform="translate(725.72 735.45) rotate(180)" style="fill:#ebebeb"></rect><rect x="359.64" y="353.13" width="6.45" height="6.64" transform="translate(725.72 712.91) rotate(180)" style="fill:#ebebeb"></rect><rect x="359.64" y="341.86" width="6.45" height="6.64" transform="translate(725.72 690.37) rotate(180)" style="fill:#ebebeb"></rect><rect x="359.64" y="330.59" width="6.45" height="6.64" transform="translate(725.72 667.83) rotate(180)" style="fill:#ebebeb"></rect><rect x="359.64" y="319.32" width="6.45" height="6.64" transform="translate(725.72 645.29) rotate(180)" style="fill:#ebebeb"></rect><rect x="359.64" y="308.05" width="6.45" height="6.64" transform="translate(725.72 622.75) rotate(180)" style="fill:#ebebeb"></rect><rect x="359.64" y="296.78" width="6.45" height="6.64" transform="translate(725.72 600.21) rotate(180)" style="fill:#ebebeb"></rect><rect x="359.64" y="285.51" width="6.45" height="6.64" transform="translate(725.72 577.67) rotate(180)" style="fill:#ebebeb"></rect><rect x="359.64" y="274.25" width="6.45" height="6.64" transform="translate(725.72 555.13) rotate(180)" style="fill:#ebebeb"></rect><rect x="351.46" y="420.75" width="6.45" height="6.64" style="fill:#ebebeb"></rect><rect x="371.23" y="268.6" width="26.15" height="173.85" style="fill:#a6a6a6"></rect><rect x="389.36" y="420.75" width="5.32" height="6.64" transform="translate(784.04 848.14) rotate(180)" style="fill:#c7c7c7"></rect><rect x="382.55" y="420.75" width="5.32" height="6.64" transform="translate(770.42 848.14) rotate(180)" style="fill:#c7c7c7"></rect><rect x="389.36" y="409.48" width="5.32" height="6.64" transform="translate(784.04 825.6) rotate(180)" style="fill:#c7c7c7"></rect><rect x="382.55" y="409.48" width="5.32" height="6.64" transform="translate(770.42 825.6) rotate(180)" style="fill:#c7c7c7"></rect><rect x="389.36" y="398.21" width="5.32" height="6.64" transform="translate(784.04 803.06) rotate(180)" style="fill:#c7c7c7"></rect><rect x="382.55" y="398.21" width="5.32" height="6.64" transform="translate(770.42 803.06) rotate(180)" style="fill:#c7c7c7"></rect><rect x="389.36" y="386.94" width="5.32" height="6.64" transform="translate(784.04 780.52) rotate(180)" style="fill:#c7c7c7"></rect><rect x="382.55" y="386.94" width="5.32" height="6.64" transform="translate(770.42 780.52) rotate(180)" style="fill:#c7c7c7"></rect><rect x="389.36" y="375.67" width="5.32" height="6.64" transform="translate(784.04 757.98) rotate(180)" style="fill:#c7c7c7"></rect><rect x="382.55" y="375.67" width="5.32" height="6.64" transform="translate(770.42 757.98) rotate(180)" style="fill:#c7c7c7"></rect><rect x="389.36" y="364.4" width="5.32" height="6.64" transform="translate(784.04 735.45) rotate(180)" style="fill:#c7c7c7"></rect><rect x="382.55" y="364.4" width="5.32" height="6.64" transform="translate(770.42 735.45) rotate(180)" style="fill:#c7c7c7"></rect><rect x="389.36" y="353.13" width="5.32" height="6.64" transform="translate(784.04 712.91) rotate(180)" style="fill:#c7c7c7"></rect><rect x="382.55" y="353.13" width="5.32" height="6.64" transform="translate(770.42 712.91) rotate(180)" style="fill:#c7c7c7"></rect><rect x="389.36" y="341.86" width="5.32" height="6.64" transform="translate(784.04 690.37) rotate(180)" style="fill:#c7c7c7"></rect><rect x="382.55" y="341.86" width="5.32" height="6.64" transform="translate(770.42 690.37) rotate(180)" style="fill:#c7c7c7"></rect><rect x="389.36" y="330.59" width="5.32" height="6.64" transform="translate(784.04 667.83) rotate(180)" style="fill:#c7c7c7"></rect><rect x="382.55" y="330.59" width="5.32" height="6.64" transform="translate(770.42 667.83) rotate(180)" style="fill:#c7c7c7"></rect><rect x="389.36" y="319.32" width="5.32" height="6.64" transform="translate(784.04 645.29) rotate(180)" style="fill:#c7c7c7"></rect><rect x="382.55" y="319.32" width="5.32" height="6.64" transform="translate(770.42 645.29) rotate(180)" style="fill:#c7c7c7"></rect><rect x="389.36" y="308.05" width="5.32" height="6.64" transform="translate(784.04 622.75) rotate(180)" style="fill:#c7c7c7"></rect><rect x="382.55" y="308.05" width="5.32" height="6.64" transform="translate(770.42 622.75) rotate(180)" style="fill:#c7c7c7"></rect><rect x="389.36" y="296.78" width="5.32" height="6.64" transform="translate(784.04 600.21) rotate(180)" style="fill:#c7c7c7"></rect><rect x="382.55" y="296.78" width="5.32" height="6.64" transform="translate(770.42 600.21) rotate(180)" style="fill:#c7c7c7"></rect><rect x="389.36" y="285.51" width="5.32" height="6.64" transform="translate(784.04 577.67) rotate(180)" style="fill:#c7c7c7"></rect><rect x="382.55" y="285.51" width="5.32" height="6.64" transform="translate(770.42 577.67) rotate(180)" style="fill:#c7c7c7"></rect><rect x="389.36" y="274.25" width="5.32" height="6.64" transform="translate(784.04 555.13) rotate(180)" style="fill:#c7c7c7"></rect><rect x="375.8" y="274.25" width="5.32" height="6.64" style="fill:#c7c7c7"></rect><rect x="375.8" y="285.51" width="5.32" height="6.64" style="fill:#c7c7c7"></rect><rect x="375.8" y="296.78" width="5.32" height="6.64" style="fill:#c7c7c7"></rect><rect x="375.8" y="308.05" width="5.32" height="6.64" style="fill:#c7c7c7"></rect><rect x="375.8" y="319.32" width="5.32" height="6.64" style="fill:#c7c7c7"></rect><rect x="375.8" y="330.59" width="5.32" height="6.64" style="fill:#c7c7c7"></rect><rect x="375.8" y="341.86" width="5.32" height="6.64" style="fill:#c7c7c7"></rect><rect x="375.8" y="353.13" width="5.32" height="6.64" style="fill:#c7c7c7"></rect><rect x="375.8" y="364.4" width="5.32" height="6.64" style="fill:#c7c7c7"></rect><rect x="375.8" y="375.67" width="5.32" height="6.64" style="fill:#c7c7c7"></rect><rect x="375.8" y="386.94" width="5.32" height="6.64" style="fill:#c7c7c7"></rect><rect x="375.8" y="398.21" width="5.32" height="6.64" style="fill:#c7c7c7"></rect><rect x="375.8" y="409.48" width="5.32" height="6.64" style="fill:#c7c7c7"></rect><rect x="375.8" y="420.75" width="5.32" height="6.64" style="fill:#c7c7c7"></rect><rect x="382.55" y="274.25" width="5.32" height="6.64" transform="translate(770.42 555.13) rotate(180)" style="fill:#c7c7c7"></rect><rect x="96.53" y="259.22" width="39.23" height="183.22" style="fill:#ebebeb"></rect><rect x="95.58" y="255.21" width="40.18" height="4.01" style="fill:#c7c7c7"></rect><rect x="100.07" y="265.14" width="3.97" height="177.31" style="fill:#fff"></rect><rect x="107.12" y="265.14" width="3.97" height="177.31" style="fill:#fff"></rect><rect x="114.16" y="265.14" width="3.97" height="177.31" style="fill:#fff"></rect><rect x="121.2" y="265.14" width="3.98" height="177.31" style="fill:#fff"></rect><rect x="128.24" y="265.14" width="3.97" height="177.31" style="fill:#fff"></rect><rect x="100.07" y="270.21" width="3.97" height="7.92" style="fill:#ebebeb"></rect><rect x="107.12" y="270.21" width="3.97" height="7.92" style="fill:#ebebeb"></rect><rect x="114.16" y="270.21" width="3.97" height="7.92" style="fill:#ebebeb"></rect><rect x="121.2" y="270.21" width="3.98" height="7.92" style="fill:#ebebeb"></rect><rect x="128.24" y="270.21" width="3.97" height="7.92" style="fill:#ebebeb"></rect><rect x="100.07" y="283.07" width="3.97" height="7.92" style="fill:#ebebeb"></rect><rect x="107.12" y="283.07" width="3.97" height="7.92" style="fill:#ebebeb"></rect><rect x="114.16" y="283.07" width="3.97" height="7.92" style="fill:#ebebeb"></rect><rect x="121.2" y="283.07" width="3.98" height="7.92" style="fill:#ebebeb"></rect><rect x="128.24" y="283.07" width="3.97" height="7.92" style="fill:#ebebeb"></rect><rect x="100.07" y="295.94" width="3.97" height="7.92" style="fill:#ebebeb"></rect><rect x="107.12" y="295.94" width="3.97" height="7.92" style="fill:#ebebeb"></rect><rect x="114.16" y="295.94" width="3.97" height="7.92" style="fill:#ebebeb"></rect><rect x="121.2" y="295.94" width="3.98" height="7.92" style="fill:#ebebeb"></rect><rect x="128.24" y="295.94" width="3.97" height="7.92" style="fill:#ebebeb"></rect><rect x="100.07" y="308.81" width="3.97" height="7.92" style="fill:#ebebeb"></rect><rect x="107.12" y="308.81" width="3.97" height="7.92" style="fill:#ebebeb"></rect><rect x="114.16" y="308.81" width="3.97" height="7.92" style="fill:#ebebeb"></rect><rect x="121.2" y="308.81" width="3.98" height="7.92" style="fill:#ebebeb"></rect><rect x="128.24" y="308.81" width="3.97" height="7.92" style="fill:#ebebeb"></rect><rect x="100.07" y="321.68" width="3.97" height="7.92" style="fill:#ebebeb"></rect><rect x="107.12" y="321.68" width="3.97" height="7.92" style="fill:#ebebeb"></rect><rect x="114.16" y="321.68" width="3.97" height="7.92" style="fill:#ebebeb"></rect><rect x="121.2" y="321.68" width="3.98" height="7.92" style="fill:#ebebeb"></rect><rect x="128.24" y="321.68" width="3.97" height="7.92" style="fill:#ebebeb"></rect><rect x="100.07" y="334.55" width="3.97" height="7.92" style="fill:#ebebeb"></rect><rect x="107.12" y="334.55" width="3.97" height="7.92" style="fill:#ebebeb"></rect><rect x="114.16" y="334.55" width="3.97" height="7.92" style="fill:#ebebeb"></rect><rect x="121.2" y="334.55" width="3.98" height="7.92" style="fill:#ebebeb"></rect><rect x="128.24" y="334.55" width="3.97" height="7.92" style="fill:#ebebeb"></rect><rect x="100.07" y="347.42" width="3.97" height="7.92" style="fill:#ebebeb"></rect><rect x="107.12" y="347.42" width="3.97" height="7.92" style="fill:#ebebeb"></rect><rect x="114.16" y="347.42" width="3.97" height="7.92" style="fill:#ebebeb"></rect><rect x="121.2" y="347.42" width="3.98" height="7.92" style="fill:#ebebeb"></rect><rect x="128.24" y="347.42" width="3.97" height="7.92" style="fill:#ebebeb"></rect><rect x="100.07" y="360.29" width="3.97" height="7.92" style="fill:#ebebeb"></rect><rect x="107.12" y="360.29" width="3.97" height="7.92" style="fill:#ebebeb"></rect><rect x="114.16" y="360.29" width="3.97" height="7.92" style="fill:#ebebeb"></rect><rect x="121.2" y="360.29" width="3.98" height="7.92" style="fill:#ebebeb"></rect><rect x="128.24" y="360.29" width="3.97" height="7.92" style="fill:#ebebeb"></rect><rect x="100.07" y="373.16" width="3.97" height="7.92" style="fill:#ebebeb"></rect><rect x="107.12" y="373.16" width="3.97" height="7.92" style="fill:#ebebeb"></rect><rect x="114.16" y="373.16" width="3.97" height="7.92" style="fill:#ebebeb"></rect><rect x="121.2" y="373.16" width="3.98" height="7.92" style="fill:#ebebeb"></rect><rect x="128.24" y="373.16" width="3.97" height="7.92" style="fill:#ebebeb"></rect><rect x="100.07" y="386.03" width="3.97" height="7.92" style="fill:#ebebeb"></rect><rect x="107.12" y="386.03" width="3.97" height="7.92" style="fill:#ebebeb"></rect><rect x="114.16" y="386.03" width="3.97" height="7.92" style="fill:#ebebeb"></rect><rect x="121.2" y="386.03" width="3.98" height="7.92" style="fill:#ebebeb"></rect><rect x="128.24" y="386.03" width="3.97" height="7.92" style="fill:#ebebeb"></rect><rect x="100.07" y="398.9" width="3.97" height="7.92" style="fill:#ebebeb"></rect><rect x="107.12" y="398.9" width="3.97" height="7.92" style="fill:#ebebeb"></rect><rect x="114.16" y="398.9" width="3.97" height="7.92" style="fill:#ebebeb"></rect><rect x="121.2" y="398.9" width="3.98" height="7.92" style="fill:#ebebeb"></rect><rect x="128.24" y="398.9" width="3.97" height="7.92" style="fill:#ebebeb"></rect><rect x="100.07" y="411.77" width="3.97" height="7.92" style="fill:#ebebeb"></rect><rect x="107.12" y="411.77" width="3.97" height="7.92" style="fill:#ebebeb"></rect><rect x="114.16" y="411.77" width="3.97" height="7.92" style="fill:#ebebeb"></rect><rect x="121.2" y="411.77" width="3.98" height="7.92" style="fill:#ebebeb"></rect><rect x="128.24" y="411.77" width="3.97" height="7.92" style="fill:#ebebeb"></rect><rect x="100.07" y="424.64" width="3.97" height="7.92" style="fill:#ebebeb"></rect><rect x="107.12" y="424.64" width="3.97" height="7.92" style="fill:#ebebeb"></rect><rect x="114.16" y="424.64" width="3.97" height="7.92" style="fill:#ebebeb"></rect><rect x="121.2" y="424.64" width="3.98" height="7.92" style="fill:#ebebeb"></rect><rect x="128.24" y="424.64" width="3.97" height="7.92" style="fill:#ebebeb"></rect><rect x="100.07" y="437.51" width="3.97" height="4.94" style="fill:#ebebeb"></rect><rect x="107.12" y="437.51" width="3.97" height="4.94" style="fill:#ebebeb"></rect><rect x="114.16" y="437.51" width="3.97" height="4.94" style="fill:#ebebeb"></rect><rect x="121.2" y="437.51" width="3.98" height="4.94" style="fill:#ebebeb"></rect><rect x="128.24" y="437.51" width="3.97" height="4.94" style="fill:#ebebeb"></rect><rect x="135.76" y="259.22" width="25.19" height="183.22" style="fill:#dbdbdb"></rect><rect x="135.76" y="255.21" width="26.28" height="4.01" style="fill:#c7c7c7"></rect><rect x="139.31" y="265.14" width="3.98" height="177.31" style="fill:#c7c7c7"></rect><rect x="146.35" y="265.14" width="3.97" height="177.31" style="fill:#c7c7c7"></rect><rect x="153.39" y="265.14" width="3.97" height="177.31" style="fill:#c7c7c7"></rect><rect x="139.31" y="270.21" width="3.98" height="7.92" style="fill:#dbdbdb"></rect><rect x="146.35" y="270.21" width="3.97" height="7.92" style="fill:#dbdbdb"></rect><rect x="153.39" y="270.21" width="3.97" height="7.92" style="fill:#dbdbdb"></rect><rect x="139.31" y="283.07" width="3.98" height="7.92" style="fill:#dbdbdb"></rect><rect x="146.35" y="283.07" width="3.97" height="7.92" style="fill:#dbdbdb"></rect><rect x="153.39" y="283.07" width="3.97" height="7.92" style="fill:#dbdbdb"></rect><rect x="139.31" y="295.94" width="3.98" height="7.92" style="fill:#dbdbdb"></rect><rect x="146.35" y="295.94" width="3.97" height="7.92" style="fill:#dbdbdb"></rect><rect x="153.39" y="295.94" width="3.97" height="7.92" style="fill:#dbdbdb"></rect><rect x="139.31" y="308.81" width="3.98" height="7.92" style="fill:#dbdbdb"></rect><rect x="146.35" y="308.81" width="3.97" height="7.92" style="fill:#dbdbdb"></rect><rect x="153.39" y="308.81" width="3.97" height="7.92" style="fill:#dbdbdb"></rect><rect x="139.31" y="321.68" width="3.98" height="7.92" style="fill:#dbdbdb"></rect><rect x="146.35" y="321.68" width="3.97" height="7.92" style="fill:#dbdbdb"></rect><rect x="153.39" y="321.68" width="3.97" height="7.92" style="fill:#dbdbdb"></rect><rect x="139.31" y="334.55" width="3.98" height="7.92" style="fill:#dbdbdb"></rect><rect x="146.35" y="334.55" width="3.97" height="7.92" style="fill:#dbdbdb"></rect><rect x="153.39" y="334.55" width="3.97" height="7.92" style="fill:#dbdbdb"></rect><rect x="139.31" y="347.42" width="3.98" height="7.92" style="fill:#dbdbdb"></rect><rect x="146.35" y="347.42" width="3.97" height="7.92" style="fill:#dbdbdb"></rect><rect x="153.39" y="347.42" width="3.97" height="7.92" style="fill:#dbdbdb"></rect><rect x="139.31" y="360.29" width="3.98" height="7.92" style="fill:#dbdbdb"></rect><rect x="146.35" y="360.29" width="3.97" height="7.92" style="fill:#dbdbdb"></rect><rect x="153.39" y="360.29" width="3.97" height="7.92" style="fill:#dbdbdb"></rect><rect x="139.31" y="373.16" width="3.98" height="7.92" style="fill:#dbdbdb"></rect><rect x="146.35" y="373.16" width="3.97" height="7.92" style="fill:#dbdbdb"></rect><rect x="153.39" y="373.16" width="3.97" height="7.92" style="fill:#dbdbdb"></rect><rect x="139.31" y="386.03" width="3.98" height="7.92" style="fill:#dbdbdb"></rect><rect x="146.35" y="386.03" width="3.97" height="7.92" style="fill:#dbdbdb"></rect><rect x="153.39" y="386.03" width="3.97" height="7.92" style="fill:#dbdbdb"></rect><rect x="139.31" y="398.9" width="3.98" height="7.92" style="fill:#dbdbdb"></rect><rect x="146.35" y="398.9" width="3.97" height="7.92" style="fill:#dbdbdb"></rect><rect x="153.39" y="398.9" width="3.97" height="7.92" style="fill:#dbdbdb"></rect><rect x="139.31" y="411.77" width="3.98" height="7.92" style="fill:#dbdbdb"></rect><rect x="146.35" y="411.77" width="3.97" height="7.92" style="fill:#dbdbdb"></rect><rect x="153.39" y="411.77" width="3.97" height="7.92" style="fill:#dbdbdb"></rect><rect x="139.31" y="424.64" width="3.98" height="7.92" style="fill:#dbdbdb"></rect><rect x="146.35" y="424.64" width="3.97" height="7.92" style="fill:#dbdbdb"></rect><rect x="153.39" y="424.64" width="3.97" height="7.92" style="fill:#dbdbdb"></rect><rect x="139.31" y="437.51" width="3.98" height="4.94" style="fill:#dbdbdb"></rect><rect x="146.35" y="437.51" width="3.97" height="4.94" style="fill:#dbdbdb"></rect><rect x="153.39" y="437.51" width="3.97" height="4.94" style="fill:#dbdbdb"></rect><rect x="47.27" y="326.56" width="39.07" height="115.89" style="fill:#ebebeb"></rect><rect x="52.83" y="316.73" width="33.51" height="9.83" style="fill:#c7c7c7"></rect><rect x="51.56" y="331.69" width="30.5" height="110.76" style="fill:#dbdbdb"></rect><rect x="51.56" y="342.26" width="30.5" height="2.62" style="fill:#fff"></rect><rect x="51.56" y="353.1" width="30.5" height="2.62" style="fill:#fff"></rect><rect x="51.56" y="363.94" width="30.5" height="2.62" style="fill:#fff"></rect><rect x="51.56" y="374.78" width="30.5" height="2.62" style="fill:#fff"></rect><rect x="51.56" y="385.62" width="30.5" height="2.62" style="fill:#fff"></rect><rect x="51.56" y="396.46" width="30.5" height="2.62" style="fill:#fff"></rect><rect x="51.56" y="407.3" width="30.5" height="2.62" style="fill:#fff"></rect><rect x="51.56" y="418.14" width="30.5" height="2.62" style="fill:#fff"></rect><rect x="51.56" y="428.99" width="30.5" height="2.62" style="fill:#fff"></rect><rect x="51.56" y="439.83" width="30.5" height="2.62" style="fill:#fff"></rect><rect x="86.34" y="326.56" width="24.47" height="115.89" style="fill:#dbdbdb"></rect><rect x="86.34" y="316.73" width="20.8" height="9.83" style="fill:#a6a6a6"></rect><rect x="89.71" y="331.69" width="18.81" height="110.76" style="fill:#c7c7c7"></rect><rect x="89.71" y="342.26" width="18.81" height="2.62" style="fill:#fff"></rect><rect x="89.71" y="353.1" width="18.81" height="2.62" style="fill:#fff"></rect><rect x="89.71" y="363.94" width="18.81" height="2.62" style="fill:#fff"></rect><rect x="89.71" y="374.78" width="18.81" height="2.62" style="fill:#fff"></rect><rect x="89.71" y="385.62" width="18.81" height="2.62" style="fill:#fff"></rect><rect x="89.71" y="396.46" width="18.81" height="2.62" style="fill:#fff"></rect><rect x="89.71" y="407.3" width="18.81" height="2.62" style="fill:#fff"></rect><rect x="89.71" y="418.14" width="18.81" height="2.62" style="fill:#fff"></rect><rect x="89.71" y="428.99" width="18.81" height="2.62" style="fill:#fff"></rect><rect x="89.71" y="439.83" width="18.81" height="2.62" style="fill:#fff"></rect><rect x="165.63" y="374.6" width="30.2" height="67.84" style="fill:#dbdbdb"></rect><rect x="170.38" y="380.47" width="5.34" height="4.16" style="fill:#c7c7c7"></rect><rect x="170.38" y="389.35" width="5.34" height="4.16" style="fill:#c7c7c7"></rect><rect x="170.38" y="398.23" width="5.34" height="4.16" style="fill:#c7c7c7"></rect><rect x="170.38" y="407.11" width="5.34" height="4.16" style="fill:#c7c7c7"></rect><rect x="170.38" y="415.99" width="5.34" height="4.16" style="fill:#c7c7c7"></rect><rect x="170.38" y="424.86" width="5.34" height="4.16" style="fill:#c7c7c7"></rect><rect x="170.38" y="433.74" width="5.34" height="4.16" style="fill:#c7c7c7"></rect><rect x="178.07" y="380.47" width="5.34" height="4.16" style="fill:#c7c7c7"></rect><rect x="178.07" y="389.35" width="5.34" height="4.16" style="fill:#c7c7c7"></rect><rect x="178.07" y="398.23" width="5.34" height="4.16" style="fill:#c7c7c7"></rect><rect x="178.07" y="407.11" width="5.34" height="4.16" style="fill:#c7c7c7"></rect><rect x="178.07" y="415.99" width="5.34" height="4.16" style="fill:#c7c7c7"></rect><rect x="178.07" y="424.86" width="5.34" height="4.16" style="fill:#c7c7c7"></rect><rect x="178.07" y="433.74" width="5.34" height="4.16" style="fill:#c7c7c7"></rect><rect x="185.74" y="380.47" width="5.34" height="4.16" style="fill:#c7c7c7"></rect><rect x="185.74" y="389.35" width="5.34" height="4.16" style="fill:#c7c7c7"></rect><rect x="185.74" y="398.23" width="5.34" height="4.16" style="fill:#c7c7c7"></rect><rect x="185.74" y="407.11" width="5.34" height="4.16" style="fill:#c7c7c7"></rect><rect x="185.74" y="415.99" width="5.34" height="4.16" style="fill:#c7c7c7"></rect><rect x="185.74" y="424.86" width="5.34" height="4.16" style="fill:#c7c7c7"></rect><rect x="185.74" y="433.74" width="5.34" height="4.16" style="fill:#c7c7c7"></rect><rect x="195.83" y="374.6" width="21.19" height="67.84" style="fill:#a6a6a6"></rect><rect x="210.5" y="433.08" width="4.35" height="4.16" transform="translate(425.35 870.31) rotate(180)" style="fill:#c7c7c7"></rect><rect x="210.5" y="424.2" width="4.35" height="4.16" transform="translate(425.35 852.56) rotate(180)" style="fill:#c7c7c7"></rect><rect x="210.5" y="415.32" width="4.35" height="4.16" transform="translate(425.35 834.8) rotate(180)" style="fill:#c7c7c7"></rect><rect x="210.5" y="406.44" width="4.35" height="4.16" transform="translate(425.35 817.05) rotate(180)" style="fill:#c7c7c7"></rect><rect x="210.5" y="397.57" width="4.35" height="4.16" transform="translate(425.35 799.29) rotate(180)" style="fill:#c7c7c7"></rect><rect x="210.5" y="388.69" width="4.35" height="4.16" transform="translate(425.35 781.53) rotate(180)" style="fill:#c7c7c7"></rect><rect x="210.5" y="379.81" width="4.35" height="4.16" transform="translate(425.35 763.78) rotate(180)" style="fill:#c7c7c7"></rect><rect x="204.24" y="433.08" width="4.35" height="4.16" transform="translate(412.83 870.31) rotate(180)" style="fill:#c7c7c7"></rect><rect x="204.24" y="424.2" width="4.35" height="4.16" transform="translate(412.83 852.56) rotate(180)" style="fill:#c7c7c7"></rect><rect x="204.24" y="415.32" width="4.35" height="4.16" transform="translate(412.83 834.8) rotate(180)" style="fill:#c7c7c7"></rect><rect x="204.24" y="406.44" width="4.35" height="4.16" transform="translate(412.83 817.05) rotate(180)" style="fill:#c7c7c7"></rect><rect x="204.24" y="397.57" width="4.35" height="4.16" transform="translate(412.83 799.29) rotate(180)" style="fill:#c7c7c7"></rect><rect x="204.24" y="388.69" width="4.35" height="4.16" transform="translate(412.83 781.53) rotate(180)" style="fill:#c7c7c7"></rect><rect x="204.24" y="379.81" width="4.35" height="4.16" transform="translate(412.83 763.78) rotate(180)" style="fill:#c7c7c7"></rect><rect x="198" y="433.08" width="4.35" height="4.16" transform="translate(400.35 870.31) rotate(180)" style="fill:#c7c7c7"></rect><rect x="198" y="424.2" width="4.35" height="4.16" transform="translate(400.35 852.56) rotate(180)" style="fill:#c7c7c7"></rect><rect x="198" y="415.32" width="4.35" height="4.16" transform="translate(400.35 834.8) rotate(180)" style="fill:#c7c7c7"></rect><rect x="198" y="406.44" width="4.35" height="4.16" transform="translate(400.35 817.05) rotate(180)" style="fill:#c7c7c7"></rect><rect x="198" y="397.57" width="4.35" height="4.16" transform="translate(400.35 799.29) rotate(180)" style="fill:#c7c7c7"></rect><rect x="198" y="388.69" width="4.35" height="4.16" transform="translate(400.35 781.53) rotate(180)" style="fill:#c7c7c7"></rect><rect x="198" y="379.81" width="4.35" height="4.16" transform="translate(400.35 763.78) rotate(180)" style="fill:#c7c7c7"></rect><rect x="399.65" y="296.78" width="20.86" height="24.65" style="fill:#dbdbdb"></rect><rect x="420.52" y="296.78" width="13.23" height="25.55" style="fill:#c7c7c7"></rect><rect x="421.5" y="307.67" width="13.13" height="14.67" style="fill:#dbdbdb"></rect><rect x="434.63" y="307.67" width="8.19" height="14.67" style="fill:#c7c7c7"></rect><rect x="391.65" y="319.83" width="33.74" height="122.61" style="fill:#ebebeb"></rect><rect x="395.51" y="325.1" width="10.61" height="4.33" style="fill:#fff"></rect><rect x="409.08" y="325.1" width="10.61" height="4.33" style="fill:#fff"></rect><rect x="395.51" y="332.46" width="10.61" height="4.33" style="fill:#fff"></rect><rect x="409.08" y="332.46" width="10.61" height="4.33" style="fill:#fff"></rect><rect x="395.51" y="339.82" width="10.61" height="4.33" style="fill:#fff"></rect><rect x="409.08" y="339.82" width="10.61" height="4.33" style="fill:#fff"></rect><rect x="395.51" y="347.18" width="10.61" height="4.33" style="fill:#fff"></rect><rect x="409.08" y="347.18" width="10.61" height="4.33" style="fill:#fff"></rect><rect x="395.51" y="354.54" width="10.61" height="4.33" style="fill:#fff"></rect><rect x="409.08" y="354.54" width="10.61" height="4.33" style="fill:#fff"></rect><rect x="395.51" y="361.9" width="10.61" height="4.33" style="fill:#fff"></rect><rect x="409.08" y="361.9" width="10.61" height="4.33" style="fill:#fff"></rect><rect x="395.51" y="369.26" width="10.61" height="4.33" style="fill:#fff"></rect><rect x="409.08" y="369.26" width="10.61" height="4.33" style="fill:#fff"></rect><rect x="395.51" y="376.62" width="10.61" height="4.33" style="fill:#fff"></rect><rect x="409.08" y="376.62" width="10.61" height="4.33" style="fill:#fff"></rect><rect x="395.51" y="383.98" width="10.61" height="4.33" style="fill:#fff"></rect><rect x="409.08" y="383.98" width="10.61" height="4.33" style="fill:#fff"></rect><rect x="395.51" y="391.34" width="10.61" height="4.33" style="fill:#fff"></rect><rect x="409.08" y="391.34" width="10.61" height="4.33" style="fill:#fff"></rect><rect x="395.51" y="398.7" width="10.61" height="4.33" style="fill:#fff"></rect><rect x="409.08" y="398.7" width="10.61" height="4.33" style="fill:#fff"></rect><rect x="395.51" y="406.06" width="10.61" height="4.34" style="fill:#fff"></rect><rect x="409.08" y="406.06" width="10.61" height="4.34" style="fill:#fff"></rect><rect x="395.51" y="413.42" width="10.61" height="4.33" style="fill:#fff"></rect><rect x="409.08" y="413.42" width="10.61" height="4.33" style="fill:#fff"></rect><rect x="395.51" y="420.78" width="10.61" height="4.33" style="fill:#fff"></rect><rect x="409.08" y="420.78" width="10.61" height="4.33" style="fill:#fff"></rect><rect x="425.39" y="319.83" width="27.34" height="122.61" style="fill:#c7c7c7"></rect><rect x="441.27" y="420.78" width="8.71" height="4.33" transform="translate(891.26 845.89) rotate(180)" style="fill:#ebebeb"></rect><rect x="430.13" y="420.78" width="8.71" height="4.33" transform="translate(868.97 845.89) rotate(180)" style="fill:#ebebeb"></rect><rect x="441.27" y="413.42" width="8.71" height="4.33" transform="translate(891.26 831.17) rotate(180)" style="fill:#ebebeb"></rect><rect x="430.13" y="413.42" width="8.71" height="4.33" transform="translate(868.97 831.17) rotate(180)" style="fill:#ebebeb"></rect><rect x="441.27" y="406.06" width="8.71" height="4.34" transform="translate(891.26 816.45) rotate(180)" style="fill:#ebebeb"></rect><rect x="430.13" y="406.06" width="8.71" height="4.34" transform="translate(868.97 816.45) rotate(180)" style="fill:#ebebeb"></rect><rect x="441.27" y="398.7" width="8.71" height="4.33" transform="translate(891.26 801.73) rotate(180)" style="fill:#ebebeb"></rect><rect x="430.13" y="398.7" width="8.71" height="4.33" transform="translate(868.97 801.73) rotate(180)" style="fill:#ebebeb"></rect><rect x="441.27" y="391.34" width="8.71" height="4.33" transform="translate(891.26 787.01) rotate(180)" style="fill:#ebebeb"></rect><rect x="430.13" y="391.34" width="8.71" height="4.33" transform="translate(868.97 787.01) rotate(180)" style="fill:#ebebeb"></rect><rect x="441.27" y="383.98" width="8.71" height="4.33" transform="translate(891.26 772.29) rotate(180)" style="fill:#ebebeb"></rect><rect x="430.13" y="383.98" width="8.71" height="4.33" transform="translate(868.97 772.29) rotate(180)" style="fill:#ebebeb"></rect><rect x="441.27" y="376.62" width="8.71" height="4.33" transform="translate(891.26 757.57) rotate(180)" style="fill:#ebebeb"></rect><rect x="430.13" y="376.62" width="8.71" height="4.33" transform="translate(868.97 757.57) rotate(180)" style="fill:#ebebeb"></rect><rect x="441.27" y="369.26" width="8.71" height="4.33" transform="translate(891.26 742.85) rotate(180)" style="fill:#ebebeb"></rect><rect x="430.13" y="369.26" width="8.71" height="4.33" transform="translate(868.97 742.85) rotate(180)" style="fill:#ebebeb"></rect><rect x="441.27" y="361.9" width="8.71" height="4.33" transform="translate(891.26 728.13) rotate(180)" style="fill:#ebebeb"></rect><rect x="430.13" y="361.9" width="8.71" height="4.33" transform="translate(868.97 728.13) rotate(180)" style="fill:#ebebeb"></rect><rect x="441.27" y="354.54" width="8.71" height="4.33" transform="translate(891.26 713.41) rotate(180)" style="fill:#ebebeb"></rect><rect x="430.13" y="354.54" width="8.71" height="4.33" transform="translate(868.97 713.41) rotate(180)" style="fill:#ebebeb"></rect><rect x="441.27" y="347.18" width="8.71" height="4.33" transform="translate(891.26 698.69) rotate(180)" style="fill:#ebebeb"></rect><rect x="430.13" y="347.18" width="8.71" height="4.33" transform="translate(868.97 698.69) rotate(180)" style="fill:#ebebeb"></rect><rect x="441.27" y="339.82" width="8.71" height="4.33" transform="translate(891.26 683.97) rotate(180)" style="fill:#ebebeb"></rect><rect x="430.13" y="339.82" width="8.71" height="4.33" transform="translate(868.97 683.97) rotate(180)" style="fill:#ebebeb"></rect><rect x="441.27" y="332.46" width="8.71" height="4.33" transform="translate(891.26 669.25) rotate(180)" style="fill:#ebebeb"></rect><rect x="430.13" y="332.46" width="8.71" height="4.33" transform="translate(868.97 669.25) rotate(180)" style="fill:#ebebeb"></rect><rect x="441.27" y="325.1" width="8.71" height="4.33" transform="translate(891.26 654.54) rotate(180)" style="fill:#ebebeb"></rect><rect x="430.13" y="325.1" width="8.71" height="4.33" transform="translate(868.97 654.54) rotate(180)" style="fill:#ebebeb"></rect><rect x="242.85" y="362.55" width="39.79" height="79.9" style="fill:#c7c7c7"></rect><rect x="249.11" y="369.46" width="7.04" height="4.89" style="fill:#dbdbdb"></rect><rect x="249.11" y="379.92" width="7.04" height="4.9" style="fill:#dbdbdb"></rect><rect x="249.11" y="390.37" width="7.04" height="4.9" style="fill:#dbdbdb"></rect><rect x="249.11" y="400.83" width="7.04" height="4.9" style="fill:#dbdbdb"></rect><rect x="249.11" y="411.28" width="7.04" height="4.9" style="fill:#dbdbdb"></rect><rect x="249.11" y="421.74" width="7.04" height="4.9" style="fill:#dbdbdb"></rect><rect x="249.11" y="432.19" width="7.04" height="4.9" style="fill:#dbdbdb"></rect><rect x="259.24" y="369.46" width="7.04" height="4.89" style="fill:#dbdbdb"></rect><rect x="259.24" y="379.92" width="7.04" height="4.9" style="fill:#dbdbdb"></rect><rect x="259.24" y="390.37" width="7.04" height="4.9" style="fill:#dbdbdb"></rect><rect x="259.24" y="400.83" width="7.04" height="4.9" style="fill:#dbdbdb"></rect><rect x="259.24" y="411.28" width="7.04" height="4.9" style="fill:#dbdbdb"></rect><rect x="259.24" y="421.74" width="7.04" height="4.9" style="fill:#dbdbdb"></rect><rect x="259.24" y="432.19" width="7.04" height="4.9" style="fill:#dbdbdb"></rect><rect x="269.34" y="369.46" width="7.04" height="4.89" style="fill:#dbdbdb"></rect><rect x="269.34" y="379.92" width="7.04" height="4.9" style="fill:#dbdbdb"></rect><rect x="269.34" y="390.37" width="7.04" height="4.9" style="fill:#dbdbdb"></rect><rect x="269.34" y="400.83" width="7.04" height="4.9" style="fill:#dbdbdb"></rect><rect x="269.34" y="411.28" width="7.04" height="4.9" style="fill:#dbdbdb"></rect><rect x="269.34" y="421.74" width="7.04" height="4.9" style="fill:#dbdbdb"></rect><rect x="269.34" y="432.19" width="7.04" height="4.9" style="fill:#dbdbdb"></rect><rect x="256.15" y="354.22" width="26.49" height="8.32" style="fill:#dbdbdb"></rect><rect x="265.85" y="349.07" width="16.8" height="5.15" style="fill:#ebebeb"></rect><rect x="282.64" y="362.55" width="27.92" height="79.9" style="fill:#a6a6a6"></rect><rect x="301.97" y="431.41" width="5.73" height="4.9" transform="translate(609.68 867.72) rotate(180)" style="fill:#c7c7c7"></rect><rect x="301.97" y="420.96" width="5.73" height="4.9" transform="translate(609.68 846.81) rotate(180)" style="fill:#c7c7c7"></rect><rect x="301.97" y="410.5" width="5.73" height="4.9" transform="translate(609.68 825.9) rotate(180)" style="fill:#c7c7c7"></rect><rect x="301.97" y="400.05" width="5.73" height="4.9" transform="translate(609.68 804.99) rotate(180)" style="fill:#c7c7c7"></rect><rect x="301.97" y="389.59" width="5.73" height="4.9" transform="translate(609.68 784.08) rotate(180)" style="fill:#c7c7c7"></rect><rect x="301.97" y="379.14" width="5.73" height="4.9" transform="translate(609.68 763.17) rotate(180)" style="fill:#c7c7c7"></rect><rect x="301.97" y="368.68" width="5.73" height="4.9" transform="translate(609.68 742.26) rotate(180)" style="fill:#c7c7c7"></rect><rect x="293.73" y="431.41" width="5.73" height="4.9" transform="translate(593.19 867.72) rotate(180)" style="fill:#c7c7c7"></rect><rect x="293.73" y="420.96" width="5.73" height="4.9" transform="translate(593.19 846.81) rotate(180)" style="fill:#c7c7c7"></rect><rect x="293.73" y="410.5" width="5.73" height="4.9" transform="translate(593.19 825.9) rotate(180)" style="fill:#c7c7c7"></rect><rect x="293.73" y="400.05" width="5.73" height="4.9" transform="translate(593.19 804.99) rotate(180)" style="fill:#c7c7c7"></rect><rect x="293.73" y="389.59" width="5.73" height="4.9" transform="translate(593.19 784.08) rotate(180)" style="fill:#c7c7c7"></rect><rect x="293.73" y="379.14" width="5.73" height="4.9" transform="translate(593.19 763.17) rotate(180)" style="fill:#c7c7c7"></rect><rect x="293.73" y="368.68" width="5.73" height="4.9" transform="translate(593.19 742.26) rotate(180)" style="fill:#c7c7c7"></rect><rect x="285.5" y="431.41" width="5.73" height="4.9" transform="translate(576.74 867.72) rotate(180)" style="fill:#c7c7c7"></rect><rect x="285.5" y="420.96" width="5.73" height="4.9" transform="translate(576.74 846.81) rotate(180)" style="fill:#c7c7c7"></rect><rect x="285.5" y="410.5" width="5.73" height="4.9" transform="translate(576.74 825.9) rotate(180)" style="fill:#c7c7c7"></rect><rect x="285.5" y="400.05" width="5.73" height="4.9" transform="translate(576.74 804.99) rotate(180)" style="fill:#c7c7c7"></rect><rect x="285.5" y="389.59" width="5.73" height="4.9" transform="translate(576.74 784.08) rotate(180)" style="fill:#c7c7c7"></rect><rect x="285.5" y="379.14" width="5.73" height="4.9" transform="translate(576.74 763.17) rotate(180)" style="fill:#c7c7c7"></rect><rect x="285.5" y="368.68" width="5.73" height="4.9" transform="translate(576.74 742.26) rotate(180)" style="fill:#c7c7c7"></rect><rect x="282.64" y="354.22" width="23.69" height="8.32" style="fill:#c7c7c7"></rect><rect x="282.64" y="349.07" width="12.84" height="5.15" style="fill:#dbdbdb"></rect></g><g id="freepik--Floor--inject-65"><polygon points="459.98 448.79 407.49 449.03 354.99 449.12 250 449.29 145.01 449.12 92.52 449.03 40.02 448.79 92.52 448.54 145.01 448.46 250 448.29 354.99 448.46 407.49 448.55 459.98 448.79" style="fill:#263238"></polygon><rect x="40.02" y="442.44" width="419.96" height="6.09" style="fill:#c7c7c7"></rect><path d="M69.46,442.44a8.56,8.56,0,0,1,.5,3.05,8.29,8.29,0,0,1-.5,3,9.52,9.52,0,0,1,0-6.09Z" style="fill:#263238"></path><path d="M102.29,442.44a9.52,9.52,0,0,1,0,6.09,8.29,8.29,0,0,1-.5-3A8.56,8.56,0,0,1,102.29,442.44Z" style="fill:#263238"></path><path d="M135.11,442.44a8.56,8.56,0,0,1,.5,3.05,8.29,8.29,0,0,1-.5,3,9.52,9.52,0,0,1,0-6.09Z" style="fill:#263238"></path><path d="M167.94,442.44a9.52,9.52,0,0,1,0,6.09,8.29,8.29,0,0,1-.5-3A8.56,8.56,0,0,1,167.94,442.44Z" style="fill:#263238"></path><path d="M200.76,442.44a8.56,8.56,0,0,1,.5,3.05,8.29,8.29,0,0,1-.5,3,9.52,9.52,0,0,1,0-6.09Z" style="fill:#263238"></path><path d="M233.59,442.44a9.52,9.52,0,0,1,0,6.09,8.29,8.29,0,0,1-.5-3A8.56,8.56,0,0,1,233.59,442.44Z" style="fill:#263238"></path><path d="M266.41,442.44a8.56,8.56,0,0,1,.5,3.05,8.29,8.29,0,0,1-.5,3,9.52,9.52,0,0,1,0-6.09Z" style="fill:#263238"></path><path d="M299.24,442.44a9.52,9.52,0,0,1,0,6.09,8.29,8.29,0,0,1-.5-3A8.56,8.56,0,0,1,299.24,442.44Z" style="fill:#263238"></path><path d="M332.06,442.44a8.56,8.56,0,0,1,.5,3.05,8.29,8.29,0,0,1-.5,3,9.52,9.52,0,0,1,0-6.09Z" style="fill:#263238"></path><path d="M364.89,442.44a9.52,9.52,0,0,1,0,6.09,8.29,8.29,0,0,1-.5-3A8.56,8.56,0,0,1,364.89,442.44Z" style="fill:#263238"></path><path d="M397.71,442.44a8.56,8.56,0,0,1,.5,3.05,8.29,8.29,0,0,1-.5,3,9.52,9.52,0,0,1,0-6.09Z" style="fill:#263238"></path><path d="M430.54,442.44a9.52,9.52,0,0,1,0,6.09,8.29,8.29,0,0,1-.5-3A8.56,8.56,0,0,1,430.54,442.44Z" style="fill:#263238"></path></g><g id="freepik--paper-plane--inject-65"><path d="M156.75,89.52l-2-.11,0-.75,2,.11Z" style="fill:#263238"></path><path d="M323,197c-1.31-.22-2.63-.48-3.9-.78l.17-.73c1.26.29,2.56.55,3.86.77Zm-8.69-2.1c-1.26-.4-2.52-.85-3.75-1.33l.28-.7c1.21.48,2.45.92,3.7,1.32ZM306,191.5c-1.17-.57-2.36-1.2-3.51-1.86l.37-.66c1.14.66,2.31,1.28,3.47,1.85ZM298.29,187c-1.08-.73-2.17-1.51-3.24-2.31l.45-.6c1.06.8,2.14,1.56,3.21,2.28Zm-7.11-5.42c-1-.84-2-1.73-3-2.64l.51-.55c1,.9,2,1.78,3,2.62Zm-6.55-6.09c-.93-.93-1.85-1.89-2.76-2.86l.54-.51c.91,1,1.82,1.91,2.75,2.84ZM278.52,169c-.87-1-1.74-2-2.6-3l.57-.49c.86,1,1.72,2,2.59,3Zm-5.8-6.8c-.84-1-1.67-2-2.51-3.07l.58-.47c.84,1,1.67,2.05,2.51,3.06Zm-5.63-6.93-2.48-3.09.58-.47,2.49,3.09Zm-5.59-7c-.83-1-1.66-2-2.51-3.07l.58-.48c.85,1,1.68,2,2.51,3.08Zm-5.67-6.89c-.85-1-1.7-2-2.57-3l.57-.49c.87,1,1.72,2,2.57,3ZM250,134.67c-.88-1-1.77-1.95-2.67-2.92l.55-.51c.9,1,1.8,1.95,2.68,2.93Zm-6.09-6.49c-.92-.94-1.86-1.87-2.81-2.79l.53-.54c.95.93,1.89,1.86,2.81,2.8ZM237.49,122c-1-.89-2-1.76-3-2.62l.49-.57c1,.86,2,1.74,3,2.63Zm-6.76-5.78c-1-.81-2.07-1.62-3.13-2.41l.45-.6q1.6,1.2,3.15,2.43Zm-7.14-5.29c-1.08-.74-2.19-1.48-3.29-2.18l.4-.63c1.11.71,2.22,1.45,3.32,2.19Zm-7.51-4.75c-1.13-.65-2.29-1.3-3.45-1.92l.36-.66c1.16.62,2.33,1.27,3.47,1.94ZM208.24,102c-1.19-.57-2.39-1.13-3.59-1.65l.3-.69c1.21.53,2.42,1.09,3.61,1.66Zm-8.15-3.54c-1.21-.48-2.46-.94-3.7-1.38l.25-.7c1.25.44,2.51.9,3.73,1.38Zm-8.38-2.92c-1.25-.39-2.51-.76-3.79-1.11l.19-.72c1.3.35,2.57.72,3.82,1.11Zm-8.58-2.33c-1.26-.3-2.55-.58-3.85-.85l.15-.73c1.31.27,2.6.55,3.87.85Zm-8.71-1.75c-1.28-.22-2.58-.42-3.9-.61l.1-.75c1.33.19,2.64.4,3.93.62Zm-8.8-1.23c-1.29-.15-2.61-.28-3.93-.39l.06-.75c1.34.12,2.65.25,3.95.39Z" style="fill:#263238"></path><path d="M330.2,197.74l-2-.14.06-.75c.65.06,1.31.1,2,.14Z" style="fill:#263238"></path><polygon points="146.87 77.73 158.94 89.71 143.82 86.29 94.36 90.86 146.87 77.73" style="fill:#407BFF"></polygon><polygon points="146.87 77.73 158.94 89.71 143.82 86.29 94.36 90.86 146.87 77.73" style="opacity:0.1"></polygon><polygon points="143.99 90.32 158.94 89.71 143.82 86.29 143.99 90.32" style="fill:#263238"></polygon><polygon points="143.82 86.29 94.36 90.86 144.94 108.36 143.82 86.29" style="fill:#407BFF"></polygon><polygon points="146.87 77.73 159.09 58.13 94.36 90.86 146.87 77.73" style="fill:#407BFF"></polygon></g><g id="freepik--Character--inject-65"><path d="M285.63,444.36c-2.41.75-72.68-.77-75.25-2.48-1-.63,5-67.2,5-67.2l44.56.86-5.06,44.52s25.92,12.28,28.55,14.46S288,443.62,285.63,444.36Z" style="fill:#f7a9a0"></path><path d="M285.63,444.36c-2.4.75-72.68-.77-75.24-2.48-.32-.2-.41-7,.71-15.76,12.74,2.14,58.23,9.12,61.77,7,2.47-1.45.28-3.72-1.74-5.25,5.8,2.9,11.22,5.68,12.34,6.62C286.08,436.7,288,443.62,285.63,444.36Z" style="fill:#263238"></path><path d="M259.17,409.39l-49.75-.62S221.09,304,220.73,302c-.46-2.58-31.51-124.29-31.51-124.29H231S263.91,291.11,265.09,302C267,319.69,259.17,409.39,259.17,409.39Z" style="fill:#37474f"></path><path d="M216.35,398.89c2.59-.18,5.2-.15,7.79-.19s5.19,0,7.79,0c5.19.05,10.37.13,15.56.27l4.26.15c1.51.07,3,.33,4.54.39a.09.09,0,0,1,0,.18c-1.28,0-2.55.2-3.83.24s-2.64.05-4,.05c-2.59,0-5.19,0-7.78,0-5.19-.05-10.38-.12-15.56-.33-2.93-.12-5.89-.16-8.8-.45A.14.14,0,0,1,216.35,398.89Z" style="fill:#263238"></path><path d="M202,187.05c3.27,13.35,6.22,26.81,9.11,40.25s5.75,26.91,8.6,40.36L224,287.85c1.39,6.55,3,13.14,3.2,19.86s-.93,13.69-1.74,20.46-1.63,13.62-2.46,20.42c-1.67,13.62-3.29,27.25-5.25,40.83-.25,1.7-.49,3.39-.72,5.1a.12.12,0,0,1-.23,0c1.38-13.63,2.8-27.26,4.36-40.87q1.17-10.22,2.38-20.43c.8-6.79,1.83-13.61,2.28-20.43s-.57-13.55-2-20.27-2.82-13.16-4.22-19.75q-4.32-20.17-8.61-40.36c-3.18-15.07-6.36-30.16-9.11-45.31A.07.07,0,0,1,202,187.05Z" style="fill:#263238"></path><path d="M189.22,177.67s13.32,52.22,22.64,89l17.77-89Z" style="fill:#263238"></path><path d="M234.09,444.52c-2.41.75-72.68-.76-75.25-2.48-1-.63,2.69-67.23,2.69-67.23l44,.85-2.12,44.56s25.92,12.29,28.55,14.47S236.49,443.78,234.09,444.52Z" style="fill:#f7a9a0"></path><path d="M234.09,444.52c-2.41.75-72.68-.77-75.25-2.48-.31-.19-.23-6.78,0-15.76,12.74,2.13,58.93,9.13,62.48,7,2.47-1.45.28-3.72-1.74-5.25,5.8,2.9,11.22,5.68,12.34,6.62C234.54,436.86,236.49,443.78,234.09,444.52Z" style="fill:#263238"></path><path d="M230.57,177.65s-1.22,20-6,35.73c-.38,1.3-.79,2.59-1.24,3.82a73.76,73.76,0,0,0-12.11,6s-3,76.37-3,81.11c.2,17.75-2.34,104.17-2.34,104.17l-49.11-.42s7.57-97.73,7.59-104.23,6.12-86.25,6.12-86.25c-6.65-17.17,3.14-39.94,3.14-39.94Z" style="fill:#37474f"></path><path d="M215.78,206.35c.18-1.16.35-2.32.53-3.49.33-2.13.76-4.24,1.13-6.36.85-4.82,1.73-9.65,2.8-14.42a.11.11,0,0,1,.21,0c-.19,1.93-.41,3.85-.68,5.77s-.46,3.85-.74,5.77c-.53,3.8-1.06,7.61-1.71,11.4-.25,1.45-1.16,4.07.94,4.52,1.66.36,2.88-1.27,3.37-2.64a32.38,32.38,0,0,0,1.12-5.26c.34-1.92.64-3.84.92-5.77q.89-6.32,1.93-12.59c0-.12.21-.08.2,0a126.32,126.32,0,0,1-.93,12.89c-.27,2-.57,4.08-.92,6.12a21.35,21.35,0,0,1-1.41,5.7,4.63,4.63,0,0,1-3.47,2.79H219a.12.12,0,0,1,.06.12c0,.68,0,1.37-.08,2.05s-.2,1.34-.33,2a14,14,0,0,1-.52,2c-.11.31-.23.62-.37.92s-.6,1.58-.78,1.87c-.08.12-.22.05-.23-.07l.29-2c0-.33.12-.65.19-1,.14-.65.32-1.3.49-1.94s.31-1.29.48-1.93.39-1.31.54-2a.18.18,0,0,1,0-.07,3,3,0,0,1-2.93-1.83A5.25,5.25,0,0,1,215.78,206.35Z" style="fill:#263238"></path><path d="M207.66,224.75a33.82,33.82,0,0,1,4.15-2.74,41.49,41.49,0,0,1,4.73-2.45c3.19-1.38,6.48-2.33,9.78-3.42.09,0,.16.13.06.17-3.19,1.27-6.24,2.95-9.33,4.46-1.51.74-3.05,1.45-4.59,2.13s-3.09,1.49-4.68,2.07A.13.13,0,0,1,207.66,224.75Z" style="fill:#263238"></path><path d="M182.75,196.93a27.1,27.1,0,0,0,6.65-.89c1-.26,2-.58,3-.9a7.7,7.7,0,0,0,2.68-1.35c1.51-1.3,2.22-3.36,2.87-5.18a50.52,50.52,0,0,0,1.75-6.29c0-.1.17-.07.18,0a24.26,24.26,0,0,1-.91,7.14c-.54,2-1.27,4.17-2.86,5.55a11.15,11.15,0,0,1-6.1,2.23,27.85,27.85,0,0,1-7.24-.1C182.6,197.15,182.6,196.93,182.75,196.93Z" style="fill:#263238"></path><path d="M168.25,354.36c.75-13.94,1.57-27.88,2.38-41.83,1.61-27.74,3.16-55.49,4.9-83.22q.47-7.38.95-14.77a48.79,48.79,0,0,1,2.28-32.16c.06-.15.31-.15.26,0a55.2,55.2,0,0,0-1.5,32.11c-.9,17.19-1.93,34.37-2.92,51.56q-2.41,41.61-5,83.22c-1,15.65-2.21,31.28-3.2,46.93a.1.1,0,0,1-.19,0C167,382.26,167.5,368.31,168.25,354.36Z" style="fill:#263238"></path><path d="M161.77,399.54c2.58-.19,5.2-.16,7.79-.19s5.19,0,7.78,0c5.19.06,10.38.13,15.57.28,1.41,0,2.83.08,4.25.15s3,.33,4.55.38a.1.1,0,0,1,0,.19c-1.27,0-2.55.2-3.82.24s-2.65,0-4,0c-2.6,0-5.19,0-7.78,0-5.19,0-10.38-.11-15.57-.32-2.92-.12-5.88-.16-8.8-.45A.14.14,0,0,1,161.77,399.54Z" style="fill:#263238"></path><path d="M245.85,109.43c-1.66-2.74-3.4-5.43-4.85-8.29a48.28,48.28,0,0,1-3.45-9c-.19-.67-.36-1.36-.52-2a58,58,0,0,0-2.09-11.35c-2.55-7.57-7.2-14-15.66-14.49-4-.25-7.58,1.09-7.45,1.21-5.47.67-10.83,3-13.6,8-2.2,3.94-2.43,8.6-3.34,12.93a101.33,101.33,0,0,1-4.27,13.93c-1.18,3.24-2.4,6.5-3.47,9.79l-.64,1.27a45.81,45.81,0,0,0-3.82,9.71,28.62,28.62,0,0,0,2,19.67,25.17,25.17,0,0,0,6.64,8.11,0,0,0,1,0,0-.05,26,26,0,0,1-8.81-16.25,30.18,30.18,0,0,1,.46-10.8,41.94,41.94,0,0,1,3.27-8.93,53.66,53.66,0,0,0-2.37,13.63c-.22,8,2.14,16.14,8.37,21.54a31.32,31.32,0,0,0,21.4,7.75c8.94-.4,33.55-2.19,34.67-24.16.34-6.75-1.45-13.14-3.69-19,.73,1.4,1.44,2.82,2,4.3a32.77,32.77,0,0,1,2.44,10.22A24.69,24.69,0,0,1,247,138.87c0,.08.07.14.11.07,3.23-6,2.9-13.39.87-19.69a60.05,60.05,0,0,0-4.38-9.59c-.34-.64-.66-1.29-1-2-.83-1.93-1.65-3.78-2.39-5.55-.42-1.06-.82-2.13-1.21-3.2s-.69-1.91-1-2.88a20.08,20.08,0,0,1-.55-2.44c-.05-.31-.1-.62-.14-.94a45.9,45.9,0,0,0,2.25,6.47c2.53,5.83,6.56,10.83,9.27,16.57a25.25,25.25,0,0,1,2.63,10.6.08.08,0,1,0,.15,0C251.93,120.23,248.92,114.52,245.85,109.43Z" style="fill:#263238"></path><path d="M204.88,117.48c4,13.17,24.84,46.75,38.36,49.61,10.87,2.31,40.55-.3,48.41-1.73,2.64-.48-2-31.43-5.1-31.43-7.32,0-30.5,8.34-36.77,6.06-2.46-.9-17-13.14-34.46-28.08C208.56,106.13,202.47,109.63,204.88,117.48Z" style="fill:#f7a9a0"></path><path d="M289.66,165.62c3.62-.25,20.14-2.87,24.58-4.63s16.82-7.75,15.82-11.28-4.77-2.07-4.77-2.07,4.83-3.36,3.5-6.82-7.12-1-7.12-1,4.71-3.8,3.13-7.16-7,.09-7,.09,4.47-3.28,2-5.5c-3-2.67-10.52,4.31-15.56,5.88-1.15.36-23.72,5.6-23.72,5.6Z" style="fill:#f7a9a0"></path><path d="M318.29,132.46c-5.57,5.13-8.89,6.4-16.22,7.74a.12.12,0,0,0,0,.23c7.29-.66,11.69-1.66,16.46-7.71C318.79,132.43,318.56,132.22,318.29,132.46Z" style="fill:#263238"></path><path d="M322.1,139.41c-6.25,4.81-9.84,6.23-17.41,8.19-.11,0-.07.21,0,.2,7.59-1.31,11.95-2.41,17.57-8C322.55,139.51,322.39,139.19,322.1,139.41Z" style="fill:#263238"></path><path d="M324.9,147.73c-6.39,4.22-10.26,5.94-17.85,6.91a.14.14,0,0,0,0,.28c7.84-.23,12.68-2.35,17.94-7C325.37,147.62,325.3,147.46,324.9,147.73Z" style="fill:#263238"></path><rect x="298.24" y="106.77" width="29.08" height="45.85" transform="translate(119.2 407.5) rotate(-77.65)" style="fill:#407BFF"></rect><rect x="298.24" y="106.77" width="29.08" height="45.85" transform="translate(119.2 407.5) rotate(-77.65)" style="fill:#fff;opacity:0.5"></rect><path d="M338.28,120.39c-2.19,1.34-4.39,2.59-6.59,3.89s-4.41,2.53-6.62,3.77-4.61,2.58-6.92,3.85l-.21.13-6.14,3.34-.3.16-.21-.27c-1.39-1.87-2.78-3.73-4.17-5.61a1.43,1.43,0,0,1-.14-.2q-2.37-3.16-4.69-6.39c-1.49-2-3-4.12-4.44-6.18s-2.93-4.17-4.36-6.29c1.6,1.9,3.15,3.87,4.72,5.81s3.12,3.92,4.66,5.91c1.71,2.2,3.43,4.42,5.13,6.67h0l3.82,5c1.86-1,3.72-2,5.57-3l0,0c2.48-1.32,5-2.63,7.45-3.91q3.35-1.74,6.69-3.42C333.8,122.6,336,121.45,338.28,120.39Z" style="fill:#407BFF"></path><path d="M307.92,129.64l-.06,0-.84.45q-2,1-4,2c-1.67.78-3.36,1.5-5.05,2.22s-3.39,1.38-5.12,2-3.46,1.25-5.23,1.78c1.62-.9,3.27-1.7,4.94-2.47s3.36-1.5,5-2.21,3.41-1.39,5.13-2c1.38-.51,2.77-1,4.17-1.45l1-.3Z" style="fill:#407BFF"></path><path d="M332.16,147.86c-1.4-1.21-2.72-2.49-4-3.79s-2.56-2.63-3.81-4-2.47-2.72-3.66-4.13c-1-1.13-1.93-2.28-2.83-3.48l-.59-.76a.21.21,0,0,0,0-.06l.06.05.77.69c1.09,1,2.14,2,3.18,3.05,1.31,1.3,2.56,2.64,3.81,4s2.47,2.72,3.66,4.12S331.06,146.38,332.16,147.86Z" style="fill:#407BFF"></path><rect x="301.54" y="114.89" width="29.08" height="45.85" transform="translate(65.35 374.54) rotate(-66.91)" style="fill:#ebebeb"></rect><path d="M342.87,133.43c-2.4.91-4.8,1.73-7.2,2.6s-4.8,1.66-7.2,2.47-5,1.67-7.52,2.49l-.23.08-6.66,2.15-.32.09-.15-.3c-1-2.09-2-4.19-3.06-6.29,0-.07-.07-.14-.1-.22-1.15-2.37-2.3-4.75-3.42-7.16s-2.14-4.59-3.2-6.9-2.11-4.63-3.12-7c1.22,2.17,2.38,4.4,3.56,6.59s2.33,4.44,3.47,6.68c1.28,2.48,2.54,5,3.8,7.5v0l2.82,5.65c2-.63,4-1.27,6-1.88h0c2.68-.83,5.36-1.66,8-2.46,2.4-.72,4.81-1.42,7.21-2.11S340.47,134.06,342.87,133.43Z" style="fill:#c7c7c7"></path><path d="M311.32,136.86l-.07,0-.9.28c-1.44.45-2.89.84-4.35,1.2-1.78.45-3.57.85-5.37,1.24s-3.59.72-5.4,1-3.64.59-5.47.77c1.75-.58,3.53-1.06,5.31-1.5s3.58-.85,5.37-1.24,3.6-.72,5.41-1c1.45-.24,2.91-.47,4.37-.64l1-.11Z" style="fill:#c7c7c7"></path><path d="M331.73,159.28c-1.14-1.45-2.2-3-3.23-4.47s-2-3.07-3-4.62-1.92-3.13-2.83-4.73c-.74-1.3-1.46-2.61-2.13-4l-.43-.85,0-.07.05.06c.21.28.42.54.62.82.89,1.17,1.74,2.38,2.57,3.59,1,1.52,2,3.06,3,4.62s1.92,3.13,2.82,4.73S330.93,157.62,331.73,159.28Z" style="fill:#c7c7c7"></path><path d="M275.86,139.49s5.67-7.59,8.9-10.38,19.08-8.74,20.56-5.39c1.91,4.32-6.56,9.57-11.05,11.59,0,0,4.44,10-.83,15.08S275.86,139.49,275.86,139.49Z" style="fill:#f7a9a0"></path><path d="M305.46,125.08c-1.11,5.2-7.17,7.48-11.37,9.77a.44.44,0,0,0-.11.71c1.58,4.32,2.55,10.87-.24,14.84a.11.11,0,0,0,.17.14c3.57-3.85,3.14-10.36,1.11-15,4.35-2.28,10.32-4.83,10.49-10.47C305.51,125.05,305.46,125.05,305.46,125.08Z" style="fill:#263238"></path><path d="M275,133.93l-.2,38.29s-23.21-.66-33.71-4.36-29.81-31.11-35.41-43.6-2.63-23.46,12.24-11.63,31.67,26.06,32.17,26.35S275,133.93,275,133.93Z" style="fill:#407BFF"></path><path d="M214.19,111a.9.9,0,1,1-.9-.89A.89.89,0,0,1,214.19,111Zm-.9,19.3a.89.89,0,1,0,.9.89A.89.89,0,0,0,213.29,130.32Zm13.87,0a.89.89,0,1,0,.89.89A.89.89,0,0,0,227.16,130.32Zm13.08.48a.92.92,0,0,0-.1.41.89.89,0,0,0,.89.89.87.87,0,0,0,.54-.19C241.14,131.55,240.69,131.19,240.24,130.8Zm-33.88-10.55a.89.89,0,1,0,.89.89A.89.89,0,0,0,206.36,120.25Zm13.87,0a.89.89,0,1,0,.89.89A.89.89,0,0,0,220.23,120.25Zm6.93,30.26a.89.89,0,1,0,.89.89A.89.89,0,0,0,227.16,150.51Zm13.87,0a.89.89,0,1,0,.89.89A.89.89,0,0,0,241,150.51Zm13.87,0a.89.89,0,1,0,.89.89A.89.89,0,0,0,254.9,150.51Zm13.87,0a.89.89,0,1,0,.89.89A.89.89,0,0,0,268.77,150.51Zm-48.54-10.07a.89.89,0,1,0,.89.89A.89.89,0,0,0,220.23,140.44Zm13.87,0a.89.89,0,1,0,.89.89A.89.89,0,0,0,234.1,140.44Zm13.86,0a.89.89,0,1,0,.9.89A.89.89,0,0,0,248,140.44Zm13.87,0a.89.89,0,1,0,.9.89A.89.89,0,0,0,261.83,140.44Zm13,.89a.87.87,0,0,0,.17.52v-1A1,1,0,0,0,274.81,141.33Zm-6,29.37a.89.89,0,0,0-.89.89.93.93,0,0,0,.05.29l1.63.11h0a.9.9,0,0,0,.09-.4A.89.89,0,0,0,268.77,170.7ZM234.1,160.63a.89.89,0,1,0,.89.89A.89.89,0,0,0,234.1,160.63Zm13.86,0a.89.89,0,1,0,.9.89A.89.89,0,0,0,248,160.63Zm13.87,0a.89.89,0,1,0,.9.89A.89.89,0,0,0,261.83,160.63Zm13,.89a.88.88,0,0,0,.06.33v-.67A.8.8,0,0,0,274.81,161.52Z" style="fill:#020100;opacity:0.1"></path><path d="M267.33,153.63c0-2.74.13-13.66.39-16.33,0-.08.11-.06.12,0,.26,2.72.35,13.71.35,16.45,0,5.48,0,11-.37,16.46,0,.11-.16.12-.16,0C267.26,164.71,267.33,159.15,267.33,153.63Z" style="fill:#263238"></path><path d="M259.85,171.24c-6.62-.65-14-1.7-18.74-3.38-10.5-3.7-29.81-31.11-35.41-43.6-4.79-10.67-3.32-20.23,6.48-15.41Z" style="opacity:0.1"></path><path d="M229,153.59l4.12,29.84s-4.73,0-11.6.06l-3.29-6.05-4.64,6.06c-14.94,0-34.13-.1-41.1-.64,0,0,10.24-55.65,23.3-69.64,6.54-7,14.15-6.41,19-1.45C216,113,230.46,132.49,232,139.9,233.25,146.44,229,153.59,229,153.59Z" style="fill:#407BFF"></path><path d="M172.46,182.85c7,.55,26.16.66,41.11.65l4.63-6.06,3.29,6.05c6.88,0,11.6-.06,11.6-.06L229,153.59s4.27-7.15,3-13.69c-.82-4.06-5.55-11.75-9.85-18.07a1.3,1.3,0,0,1-.18-.25c-3.48-5.1-6.65-9.25-7.19-9.81-4.64-4.77-11.84-5.49-18.19.67a0,0,0,0,0,0,0,1.14,1.14,0,0,0-.16.15c-.21.2-.42.41-.61.62a35.55,35.55,0,0,0-5.13,7.73l-.23.43a146.27,146.27,0,0,0-8.62,22.83l-.09.3C176.05,163.34,172.46,182.85,172.46,182.85Z" style="fill:#407BFF"></path><path d="M200.32,111a.9.9,0,1,1-.9-.89A.89.89,0,0,1,200.32,111Zm12.6-.81a.9.9,0,0,0-.52.81.89.89,0,0,0,1.76.2A13,13,0,0,0,212.92,110.21Zm-26.6,20.53c-.16.44-.33.88-.5,1.32a.89.89,0,0,0,.63-.85A1,1,0,0,0,186.32,130.74Zm13.1-.42a.89.89,0,1,0,.9.89A.89.89,0,0,0,199.42,130.32Zm13.87,0a.89.89,0,1,0,.9.89A.89.89,0,0,0,213.29,130.32Zm14.31.12a.83.83,0,0,0-.44-.12.89.89,0,1,0,.89.9h0Zm-35.11-10.19a.89.89,0,1,0,.89.89A.89.89,0,0,0,192.49,120.25Zm13.87,0a.89.89,0,1,0,.89.89A.89.89,0,0,0,206.36,120.25Zm13.87,0a.89.89,0,1,0,.89.89A.89.89,0,0,0,220.23,120.25Zm-34.67,30.26a.89.89,0,1,0,.89.89A.89.89,0,0,0,185.56,150.51Zm13.86,0a.89.89,0,1,0,.9.89A.89.89,0,0,0,199.42,150.51Zm13.87,0a.89.89,0,1,0,.9.89A.89.89,0,0,0,213.29,150.51Zm13.87,0a.89.89,0,1,0,.89.89A.89.89,0,0,0,227.16,150.51Zm-34.67-10.07a.89.89,0,1,0,.89.89A.89.89,0,0,0,192.49,140.44Zm13.87,0a.89.89,0,1,0,.89.89A.89.89,0,0,0,206.36,140.44Zm13.87,0a.89.89,0,1,0,.89.89A.89.89,0,0,0,220.23,140.44ZM185.56,170.7a.89.89,0,1,0,.89.89A.89.89,0,0,0,185.56,170.7Zm13.86,0a.89.89,0,1,0,.9.89A.89.89,0,0,0,199.42,170.7Zm13.87,0a.89.89,0,1,0,.9.89A.89.89,0,0,0,213.29,170.7Zm13.87,0a.89.89,0,1,0,.89.89A.89.89,0,0,0,227.16,170.7Zm-48.54-10.07a.89.89,0,1,0,.89.89A.89.89,0,0,0,178.62,160.63Zm13.87,0a.89.89,0,1,0,.89.89A.89.89,0,0,0,192.49,160.63Zm13.87,0a.89.89,0,1,0,.89.89A.89.89,0,0,0,206.36,160.63Zm13.87,0a.89.89,0,1,0,.89.89A.89.89,0,0,0,220.23,160.63Zm-41.61,20.19a.89.89,0,1,0,.89.89A.89.89,0,0,0,178.62,180.82Zm13.87,0a.89.89,0,1,0,.89.89A.89.89,0,0,0,192.49,180.82Zm13.87,0a.89.89,0,1,0,.89.89A.89.89,0,0,0,206.36,180.82Zm13.87,0-.18,0,.81,1.5a.89.89,0,0,0-.63-1.52Z" style="fill:#020100;opacity:0.1"></path><path d="M231.13,169.49c-.52-2.73-.91-4.87-1.34-7.61s-.91-5.48-1.31-8.22l0-.18.12-.18a20.76,20.76,0,0,0,2.8-6.89,15.46,15.46,0,0,0,.35-3.71,12.59,12.59,0,0,0-.57-3.65,43.67,43.67,0,0,0-3-7c-1.19-2.26-2.16-4.16-3.48-6.37-.21-.34-.08-.42.12-.15,1.32,1.81,2.77,4.29,3.9,6.22a37.67,37.67,0,0,1,3.36,7,12.43,12.43,0,0,1,.69,3.92,15.79,15.79,0,0,1-.34,3.94,20.22,20.22,0,0,1-3,7.26l.09-.36c.36,2.75.66,5.51,1,8.27.29,2.48.61,5.15.83,7.63C231.28,169.7,231.3,170.49,231.13,169.49Z" style="fill:#263238"></path><path d="M227.07,127.75a12.09,12.09,0,0,1,1.34,2.57c.16.45.32.91.44,1.38a5.83,5.83,0,0,1,.21,1.44c-.42-.87-.82-1.73-1.16-2.63A16.93,16.93,0,0,1,227.07,127.75Z" style="fill:#263238"></path><path d="M211.21,115.38c1.61,3.2,3.09,6.45,4.52,9.73s2.72,6.62,3.84,10a40.57,40.57,0,0,1,1.36,5.23,14.43,14.43,0,0,1-.05,5.44,28,28,0,0,1-4.19,10l.06-.23c.35,3.42.69,6.85,1,10.28s.6,6.86.85,10.3q-.72-5.12-1.34-10.25c-.43-3.42-.81-6.84-1.18-10.26l0-.12.08-.11a31.12,31.12,0,0,0,2.46-4.68,24.24,24.24,0,0,0,1.6-5c.84-3.46-.19-7-1.19-10.36s-2.29-6.75-3.62-10.06S212.66,118.65,211.21,115.38Z" style="fill:#263238"></path><path d="M214.73,130a1,1,0,0,1-1.89.27,1,1,0,1,1,1.89-.27Z" style="fill:#263238"></path><path d="M218,139.31a1,1,0,1,1-1.08-.82A1,1,0,0,1,218,139.31Z" style="fill:#263238"></path><path d="M217,149.68a1,1,0,0,1-.81,1.08,1,1,0,1,1,.81-1.08Z" style="fill:#263238"></path><path d="M214.11,159.86a1,1,0,1,1-1.08-.81A1,1,0,0,1,214.11,159.86Z" style="fill:#263238"></path><path d="M215.1,169.66a1,1,0,1,1-1.08-.81A1,1,0,0,1,215.1,169.66Z" style="fill:#263238"></path><path d="M211.22,152.75a52.88,52.88,0,0,1,7.86.17c1.3.15,2.58.35,3.87.58.64.12,1.28.21,1.92.3a8.19,8.19,0,0,0,2,.09.05.05,0,0,1,0,.1,13.64,13.64,0,0,1-1.91.23,14.55,14.55,0,0,1-1.87-.08c-1.32-.14-2.63-.33-3.95-.48-2.65-.3-5.31-.59-8-.7C211.09,153,211.09,152.75,211.22,152.75Z" style="fill:#263238"></path><path d="M205.14,155.94a57.39,57.39,0,0,1,6.38-1.21c1.07-.14,2.15-.22,3.23-.26.52,0,1,0,1.56-.05s1.14.06,1.71.05c0,0,.07.09,0,.09-.54,0-1.07.15-1.61.22l-1.61.18-3.21.38c-2.16.23-4.3.48-6.44.78C205.05,156.14,205,156,205.14,155.94Z" style="fill:#263238"></path><rect x="244.47" y="170.82" width="45.85" height="29.08" transform="translate(-18.1 29.31) rotate(-6.07)" style="fill:#ebebeb"></rect><path d="M288.66,168.48c-1.65,2-3.35,3.84-5,5.77s-3.39,3.79-5.09,5.67-3.57,3.91-5.36,5.84L273,186c-1.58,1.7-3.17,3.41-4.77,5.11l-.23.24-.28-.18-5.73-4-.2-.14c-2.16-1.52-4.32-3-6.47-4.59s-4.11-3-6.16-4.46-4.1-3-6.13-4.59c2.12,1.3,4.22,2.68,6.32,4s4.19,2.74,6.28,4.14c2.33,1.54,4.65,3.11,7,4.7h0l5.22,3.56q2.16-2.3,4.35-4.58s0,0,0,0c1.94-2,3.87-4,5.83-6.06,1.75-1.8,3.5-3.59,5.27-5.36S286.86,170.2,288.66,168.48Z" style="fill:#c7c7c7"></path><path d="M262.78,186.84l0,.06-.66.68q-1.56,1.63-3.21,3.16c-1.33,1.27-2.7,2.49-4.08,3.7s-2.79,2.38-4.23,3.53-2.88,2.28-4.4,3.34c1.25-1.36,2.57-2.65,3.91-3.9s2.71-2.49,4.08-3.7,2.8-2.39,4.23-3.54c1.14-.91,2.31-1.82,3.5-2.68l.84-.6Z" style="fill:#c7c7c7"></path><path d="M291.53,196.48c-1.71-.71-3.37-1.51-5-2.33s-3.26-1.69-4.88-2.57-3.2-1.8-4.77-2.75c-1.28-.77-2.55-1.56-3.79-2.41l-.79-.54-.06,0,.07,0,.95.41c1.35.59,2.67,1.23,4,1.89,1.64.82,3.26,1.69,4.87,2.57s3.2,1.8,4.77,2.75S290,195.42,291.53,196.48Z" style="fill:#c7c7c7"></path><path d="M194.22,115.47c-11.16,15.1-32.47,50.84-25.32,58.71,11.76,12.95,40,24.12,48.75,26.24,3.83.92,16.62-26.71,13-28.88-4.34-2.6-34.62-11.86-34.54-14.44,0-1.46,3.2-13.72,5.8-29.45C204.93,109.4,199.54,108.27,194.22,115.47Z" style="fill:#f7a9a0"></path><path d="M216.87,170s11.41-3.65,19-5.69c4.22-1.14,11.64-2.45,15.13-1.86,5.22.87,26.47,7.85,24.89,13-1.43,4.7-18.93-3.62-18.93-3.62s18.4,6.84,15.64,12.18-21.29-6.69-21.29-6.69,18.75,7.44,15,12.5c-2.81,3.82-20.2-6.13-20.2-6.13s16.07,6.51,13.35,10.56c-3,4.48-19.64-3.69-19.64-3.69-8.66,9.14-16.47,10.32-22.18,9.86C216.29,200.31,216.87,170,216.87,170Z" style="fill:#f7a9a0"></path><path d="M250.74,169.06c2.19.73,4.41,1.44,6.53,2.36s4.2,1.91,6.23,3a39.06,39.06,0,0,1,7.46,5.07c-4.31-3.2-11.85-6.6-14-7.52s-4.19-1.93-6.3-2.85C250.64,169.12,250.68,169,250.74,169.06Z" style="fill:#263238"></path><path d="M247.29,176.65c3.26.79,9.45,3.3,16,7,.2.11.08.18-.13.08-2.66-1.24-13.54-5.76-15.91-7C247.22,176.69,247.24,176.64,247.29,176.65Z" style="fill:#263238"></path><path d="M243.16,182.63A50.27,50.27,0,0,1,254.79,188c.19.11,0,.19-.18.09-3.78-1.77-6.44-2.83-11.5-5.27A.08.08,0,0,1,243.16,182.63Z" style="fill:#263238"></path><path d="M220.53,166.93,204.24,203.4s-31.31-19.63-37-30.32c-5.1-9.59,19.36-48.69,25-56.31s11.31-8.92,10.69,3.82-5.91,35.88-5.91,36.24S220.53,166.93,220.53,166.93Z" style="fill:#407BFF"></path><path d="M200.31,111.13a.89.89,0,0,1-1.76.07A2.82,2.82,0,0,1,200.31,111.13Zm-14.75,19.19a.89.89,0,1,0,.89.89A.89.89,0,0,0,185.56,130.32Zm13.86,0a.89.89,0,1,0,.9.89A.89.89,0,0,0,199.42,130.32Zm-6.93-10.07a.89.89,0,1,0,.89.89A.89.89,0,0,0,192.49,120.25Zm-20.07,30.64-.64,1.39a.88.88,0,0,0,.8-.88A.91.91,0,0,0,172.42,150.89Zm13.14-.38a.89.89,0,1,0,.89.89A.89.89,0,0,0,185.56,150.51Zm-6.94-10.07a.89.89,0,1,0,.89.89A.89.89,0,0,0,178.62,140.44Zm13.87,0a.89.89,0,1,0,.89.89A.89.89,0,0,0,192.49,140.44Zm-20.8,30.26a.89.89,0,1,0,.89.89A.89.89,0,0,0,171.69,170.7Zm13.87,0a.89.89,0,1,0,.89.89A.89.89,0,0,0,185.56,170.7Zm13.86,0a.89.89,0,1,0,.9.89A.89.89,0,0,0,199.42,170.7Zm13.87,0a.89.89,0,1,0,.9.89A.89.89,0,0,0,213.29,170.7Zm-34.67-10.07a.89.89,0,1,0,.89.89A.89.89,0,0,0,178.62,160.63Zm13.87,0a.89.89,0,1,0,.89.89A.89.89,0,0,0,192.49,160.63Zm14.74.73-1.36-.58a.89.89,0,1,0,1.38.74A.44.44,0,0,0,207.23,161.36Zm-7.81,29.53a.89.89,0,1,0,.9.89A.89.89,0,0,0,199.42,190.89Zm-20.8-10.07a.89.89,0,1,0,.89.89A.89.89,0,0,0,178.62,180.82Zm13.87,0a.89.89,0,1,0,.89.89A.89.89,0,0,0,192.49,180.82Zm13.87,0a.89.89,0,1,0,.89.89A.89.89,0,0,0,206.36,180.82Z" style="fill:#020100;opacity:0.1"></path><path d="M205.3,181.14c1.19-2.77,6.07-13.71,7.52-16.28.05-.08.15,0,.13.07-.88,2.86-5.54,14-6.74,16.74-2.39,5.52-4.72,11.1-7.55,16.42a.1.1,0,0,1-.18-.08C200.42,192.27,202.91,186.7,205.3,181.14Z" style="fill:#263238"></path><path d="M199.58,142.67c.92-4.85,1.74-9.72,2.57-14.58,0-.09.17-.07.16,0-.23,2.75-.56,5.48-.94,8.21.44-1.41.85-2.83,1.23-4.25,0-.11.18-.06.16,0a28.58,28.58,0,0,1-1.59,5.5c-.25,1.66-.51,3.31-.81,5-.43,2.41-2.58,13-2.91,14.2,4.08,1.4,7.69,3.13,11.68,4.77,2,.8,3.9,1.61,5.84,2.45a52.15,52.15,0,0,1,5.94,2.58c.1.06-.26.57-.38.82s-.25.1-.21,0,.08-.26.1-.35c-1-.26-4.83-1.9-5.83-2.3l-5.86-2.4c-4-1.63-12.18-5-12.17-5.08C196.66,156.14,199.11,145.13,199.58,142.67Z" style="fill:#263238"></path><path d="M202.86,109.72c.13,1.17,4.7,9.24,9.95,9.62,1.71.12,2.79-9.19,2.79-9.19l.23-.67,3.31-9.36L208.7,91.51l-1.52-1.15s-.74,2.62-1.62,5.89l-.12.47c-.06.18-.11.36-.16.53l-.4,1.48c-.1.38-.2.75-.29,1.16s-.19.79-.29,1.19A63.54,63.54,0,0,0,202.86,109.72Z" style="fill:#f7a9a0"></path><path d="M205.56,96.25a19.91,19.91,0,0,0,10.27,13.23l3.31-9.36L208.7,91.51l-1.52-1.15S206.44,93,205.56,96.25Z" style="fill:#263238"></path><path d="M235,88c-.51,17.42-11,19.08-14.77,19-3.41-.1-15-.89-16.3-18.27s7-22.66,14.78-22.83S235.47,70.52,235,88Z" style="fill:#f7a9a0"></path><path d="M232.59,84.87a11.85,11.85,0,0,1-1.17-.31A1.94,1.94,0,0,1,230.3,84a.62.62,0,0,1,0-.76,1.55,1.55,0,0,1,1.53-.28,2.29,2.29,0,0,1,1.37.87A.66.66,0,0,1,232.59,84.87Z" style="fill:#263238"></path><path d="M220.65,84.22a11.79,11.79,0,0,0,1.19-.19,2,2,0,0,0,1.18-.42.63.63,0,0,0,0-.76,1.54,1.54,0,0,0-1.49-.44,2.28,2.28,0,0,0-1.46.73A.67.67,0,0,0,220.65,84.22Z" style="fill:#263238"></path><path d="M223.19,88.63s-.09.06-.09.1c0,1.19-.19,2.55-1.28,2.92,0,0,0,.07,0,.06C223.14,91.57,223.38,89.76,223.19,88.63Z" style="fill:#263238"></path><path d="M222.16,87.36c-1.9-.19-2.16,3.63-.39,3.81S223.76,87.53,222.16,87.36Z" style="fill:#263238"></path><path d="M221.4,87.52c-.35.19-.7.55-1.11.56s-.79-.41-1.07-.81c0,0-.06,0-.07,0-.06.73.17,1.5.95,1.66s1.27-.47,1.5-1.19C221.65,87.65,221.54,87.44,221.4,87.52Z" style="fill:#263238"></path><path d="M229.79,88.82s.09.07.08.12c-.12,1.18-.07,2.55,1,3,0,0,0,.08,0,.07C229.53,91.75,229.48,89.92,229.79,88.82Z" style="fill:#263238"></path><path d="M230.94,87.67c1.91,0,1.78,3.82,0,3.83S229.33,87.67,230.94,87.67Z" style="fill:#263238"></path><path d="M231.73,88c.29.21.58.59.94.63s.74-.36,1-.75c0,0,.06,0,.06,0,0,.74-.27,1.49-1,1.61s-1.1-.54-1.24-1.28C231.5,88.06,231.61,87.86,231.73,88Z" style="fill:#263238"></path><path d="M222.4,98.34c.25.31.49.72.92.81a3.07,3.07,0,0,0,1.3-.16,0,0,0,0,1,0,.07,1.59,1.59,0,0,1-1.57.47,1.27,1.27,0,0,1-.81-1.15C222.27,98.31,222.36,98.3,222.4,98.34Z" style="fill:#263238"></path><path d="M227.59,94.33s.15,1.79.1,2.62c0,.08-.21.11-.49.11h0a4,4,0,0,1-3.77-1.7c-.06-.08,0-.16.13-.11a5.94,5.94,0,0,0,3.56,1.24c.07-.23-.35-3-.22-3a7.33,7.33,0,0,1,1.87.54c-.19-3.73-1-7.39-1.13-11.1,0-.13.19-.16.22,0a59.64,59.64,0,0,1,1.73,11.9C229.6,95.22,227.92,94.49,227.59,94.33Z" style="fill:#263238"></path><path d="M205.17,89.42c3.2.68,4.67-6.65,4.67-6.65s14-1.15,16.12-12.27a19,19,0,0,0,8.68,11.22s.58-12.35-9-15.58c0,0-11.73-5.45-19.36,3.57S203,89,205.17,89.42Z" style="fill:#263238"></path><path d="M226.08,69.67A12.2,12.2,0,0,1,225,74.74a12.62,12.62,0,0,1-3,4.31,11.64,11.64,0,0,1-1,.85l-.52.41-.56.35c-.38.22-.75.46-1.13.67l-1.21.52-.6.25-.63.18-1.25.36c-.85.16-1.71.28-2.56.38.82-.28,1.65-.47,2.45-.75l1.19-.46.6-.22.56-.29,1.12-.58c.36-.21.7-.45,1.06-.68l.52-.34.49-.4a10.41,10.41,0,0,0,.94-.82,14.49,14.49,0,0,0,3-4,16.41,16.41,0,0,0,1-2.33A15.11,15.11,0,0,0,226.08,69.67Z" style="fill:#263238"></path><path d="M203.67,95.07a3.65,3.65,0,0,0,.78.3,2.7,2.7,0,0,0,.81.12,2.57,2.57,0,0,0,1-.21,2.92,2.92,0,0,0,.71-.43,3.24,3.24,0,0,0,.77-.89l-.42-4.74s-3.15-5.85-5.76-4.78S200.91,93.67,203.67,95.07Z" style="fill:#f7a9a0"></path><path d="M202.21,86.76c-.05,0-.06.06,0,.08,1.92,1,2.76,3,3.28,5.07a1.62,1.62,0,0,0-2.36-.72c-.06,0,0,.12,0,.11a1.84,1.84,0,0,1,1.91.86,8.82,8.82,0,0,1,.76,1.72c.07.19.41.13.37-.09,0,0,0,0,0-.05C206.52,91.18,204.94,87.34,202.21,86.76Z" style="fill:#263238"></path><path d="M204,94.37a.81.81,0,0,0,.87.74.82.82,0,0,0,.74-.88.81.81,0,0,0-.88-.73A.79.79,0,0,0,204,94.37Z" style="fill:#fff"></path><path d="M202.49,93a.57.57,0,1,0,.52-.62A.57.57,0,0,0,202.49,93Z" style="fill:#fff"></path><path d="M215.59,110.75l-3.25,8.07-9.55-10.75-3.31,3.82s9.8,16.22,9.86,15.49l3.33-7,4.8,4.84-.39-12.15Z" style="fill:#407BFF"></path><path d="M217.62,119.25c-.13-2-.21-4-.43-6,0-.08-.12-.11-.14,0-.4,1.93.14,9.59.13,11.43l0,0c-.2-.21-4.45-4.26-4.49-4.2-.72,1.11-3.16,6.17-3.33,6.63-1.55-2.57-8.13-12.73-10-15.17a.07.07,0,0,0-.12.07c1.37,2.72,9.88,16.13,10,16.09a79.78,79.78,0,0,0,3.48-7.35c.72.88,5,5.45,5,5.15A63,63,0,0,0,217.62,119.25Z" style="fill:#263238"></path></g><g id="freepik--Plant--inject-65"><path d="M390.92,419.47c-3.34.12-7.06.31-9.82-1.86-2.55-2-4.83-5-4.49-8.39.1-1,.32-1.57,1.37-1.16,1.59.64,2.81,2.39,3.92,3.62a33.63,33.63,0,0,0,4.62,4.39c1.19.91,2.47,1.7,3.68,2.58l.45.34a1.09,1.09,0,0,1,.17.13h.1a.17.17,0,0,1,.14.07.14.14,0,0,1,0,.06A.18.18,0,0,1,390.92,419.47Z" style="fill:#407BFF"></path><path d="M391.08,419.25c-2.93-.05-6.09.08-8.44-1.91a13.55,13.55,0,0,1-2.72-3.31c-.34-.55-1.36-2.2-.94-2.85.77-1.18,4.26,3.64,4.74,4.11a14.37,14.37,0,0,0,6.48,3.36l.45.34a16.06,16.06,0,0,1-4.86-1.87c-2.08-1.24-3.24-3.08-4.87-4.79-.35-.37-1.41-1.62-1.81-.84-.26.51.72,2.12.93,2.46a13.69,13.69,0,0,0,2.57,3.15c2.34,2,5.49,2,8.45,2.09A.14.14,0,0,1,391.08,419.25Z" style="fill:#fff"></path><path d="M392.76,421.5c0,.13-.06.26-.08.39h0a.07.07,0,0,1-.06.07.14.14,0,0,1-.17-.07.11.11,0,0,1,0-.08s0,0,0-.05l0-.11h0s0,0,0,0c-.59-2.21-.82-4.5-1.44-6.71s-1.33-4.18-1.76-6.33c-.27-1.36-1.22-8.16,1.78-7.31,1.33.37,2.24,2.3,2.75,3.45a14.15,14.15,0,0,1,1.1,4.89C395.12,413.75,393.6,417.52,392.76,421.5Z" style="fill:#407BFF"></path><path d="M393.72,413a16.7,16.7,0,0,0-.48-4.62c-.14-.52-.79-3-1.64-3-.54,0-.64,1.11-.68,1.47a14.32,14.32,0,0,0,.59,4.54,61.81,61.81,0,0,1,1.1,9.09c0,.19-.06.38-.08.57l-.06.49a1,1,0,0,1,0,.16s0,.08,0,.13a.14.14,0,0,0,.17.07c0-.13,0-.25.05-.37,0,.1,0,.2,0,.3h0l.06-.32a.64.64,0,0,0,0-.07c0-.17,0-.34,0-.5A69.34,69.34,0,0,0,393.72,413Zm-1,6.87a53.08,53.08,0,0,0-.51-5.33c-.2-1.43-.47-2.84-.77-4.25a14.93,14.93,0,0,1-.38-2.41c0-.62.06-2.91,1.25-1.49.85,1,1.06,3.23,1.16,4.5a22.89,22.89,0,0,1-.08,4.22C393.21,416.74,392.94,418.32,392.7,419.9Z" style="fill:#fff"></path><path d="M394.55,430.66h-.12c-3.05-.15-7.11.13-9.65-1.89-1.88-1.49-3.72-4.43-3.12-6.93.67-2.82,4.47.56,5.48,1.38a92.5,92.5,0,0,1,7.48,7.27l0,.05h0C394.69,430.61,394.62,430.64,394.55,430.66Z" style="fill:#407BFF"></path><path d="M394.66,430.57l-.53-.33c-2-1.27-4-2.62-5.84-4.06-.47-.36-3.9-3.42-4.42-2.32-.31.66.82,2,1.18,2.46a9.31,9.31,0,0,0,2.32,2.06c2,1.27,4.5,1.55,6.8,2.16l.32.08.06,0h0C394.62,430.64,394.69,430.61,394.66,430.57Zm-6-1.74a9.54,9.54,0,0,1-2.63-1.78c-.51-.49-2.31-2.31-1.83-3.06.25-.4.46-.19.95.05.22.11.44.24.65.37.51.34,1,.73,1.45,1.11.84.67,1.69,1.32,2.56,2,1.41,1,2.87,2,4.36,2.93A45.05,45.05,0,0,1,388.62,428.83Z" style="fill:#fff"></path><path d="M400.13,424.37a18.07,18.07,0,0,1-5.23,9.13l-.06,0a.15.15,0,0,1-.16-.06.14.14,0,0,1,0-.18l.15-.15c.51-4.15,1.07-8.27,1.49-12.43.1-1,.87-7.22,2.79-6.2,1.18.63,1.26,3.18,1.36,4.33A18.27,18.27,0,0,1,400.13,424.37Z" style="fill:#407BFF"></path><path d="M399,418.81c-.1-.34-.29-.7-.67-.46-.75.47-1,3.4-1.17,4.21-.51,3.35-1.3,6.56-2.11,9.84-.06.27-.13.55-.2.83l-.18.25a.11.11,0,0,0,.15,0l0-.08c.08-.11.17-.22.24-.33h0a20.89,20.89,0,0,0,3-5.88,20,20,0,0,0,.89-4.1A11.62,11.62,0,0,0,399,418.81Zm-3.92,14.08a.91.91,0,0,1-.11.16c0-.11.07-.22.1-.33a60.35,60.35,0,0,0,1.87-7.61c.22-1.31.36-2.63.63-3.93.11-.55.38-2.11.84-2.37s.44.36.49.71,0,.72,0,1A21.06,21.06,0,0,1,395.1,432.89Z" style="fill:#fff"></path><path d="M395.4,442.44h-.61l0-1.6c-.07-2.17-.16-4.34-.29-6.5-.07-1.24-.16-2.46-.29-3.68a.49.49,0,0,1,0-.12c0-.1,0-.2,0-.3a3.11,3.11,0,0,0,0-.32,26.39,26.39,0,0,0-2.09-8c-.39-.84-.82-1.66-1.26-2.48l-.13-.23,0-.06c0-.09-.08-.16-.13-.25a1.62,1.62,0,0,1-.1-.18c-1.42-2.48-3-4.85-4.56-7.24-.44-.69-.88-1.37-1.31-2.06a.75.75,0,0,1-.07-.12l-.1-.15c-1.93-3-3.82-6.1-5.81-9.08-.08-.11.1-.21.17-.1,1.35,2,2.75,3.92,4.13,5.88.19.25.37.52.56.78.36.51.72,1,1.09,1.54.72,1,1.43,2.07,2.13,3.12a86.43,86.43,0,0,1,5.62,9.09c.12.23.23.47.34.71a4.54,4.54,0,0,1,.21.45l.24.53a28.27,28.27,0,0,1,2,9.6c0,.23,0,.46,0,.7s0,.21,0,.32,0,.11,0,.17,0,.14,0,.22h0c0,.05,0,.1,0,.16l0,.6c.08,2.16.14,4.33.19,6.49C395.35,441.06,395.38,441.75,395.4,442.44Z" style="fill:#407BFF"></path><path d="M377.2,403.2c-1.67-2.25-3.81-6.88-1.35-9.29a2.62,2.62,0,0,1,3.49-.26c1.3.94,1.88,2.72,2.3,4.19,1.13,3.93,1.88,7.93,3.29,11.78,0,0,.11.33.15.41s-.1.12-.13,0-.09-.25-.14-.38C382.15,407.76,379.18,405.86,377.2,403.2Z" style="fill:#407BFF"></path><path d="M385,409.63a.25.25,0,0,1,0-.07,25.32,25.32,0,0,1-1.56-2.9,54.08,54.08,0,0,1-2.4-6.44c-.27-.84-1.47-5-2.95-3.32a3.7,3.7,0,0,0-.43,2.77,10.42,10.42,0,0,0,1.28,3.86,19,19,0,0,0,5.55,5.8l.29.22.06.1,0,.07,0,0a.1.1,0,0,0,.13-.06A.13.13,0,0,0,385,409.63Zm-.65-.45a21.91,21.91,0,0,1-4.7-4.72,11.75,11.75,0,0,1-1.53-3.12,9,9,0,0,1-.33-1.52,5.61,5.61,0,0,1-.07-1.16c0-.84.38-1.77.88-1.86s.82.25,1.23,1a6.53,6.53,0,0,1,.37.75,19.64,19.64,0,0,1,.69,1.95c.35,1.09.7,2.18,1.09,3.25.27.73.55,1.46.86,2.17a29.76,29.76,0,0,0,1.83,3.55Z" style="fill:#fff"></path><path d="M417.26,409.47c-.27,2.23-.7,4.43-1.15,6.63-.25,1.24-.52,2.49-.77,3.74A9,9,0,0,0,415,424h0a.62.62,0,0,1,0,.19v0a.17.17,0,0,1-.29,0s0-.06,0-.09l0,0a6,6,0,0,1-.48-1.15,30.54,30.54,0,0,1-1.1-3.22A27.58,27.58,0,0,1,412,412.8a23.36,23.36,0,0,1,.64-6.18c.4-1.62,1-4,2.17-5.27s2,.68,2.32,1.58C417.86,405,417.52,407.37,417.26,409.47Z" style="fill:#407BFF"></path><path d="M415.27,404.75c-.81,0-1.4,2.62-1.69,3.75a22.39,22.39,0,0,0-.69,5.46,28.85,28.85,0,0,0,1.68,9.7l.12.38,0,0s0,.06,0,.09a.16.16,0,0,0,.29,0q-.07-.4-.12-.81c0-.25-.06-.5-.08-.74a38.62,38.62,0,0,1,.5-8C415.72,411.53,416.34,404.75,415.27,404.75Zm-.59,18.43c.05.36.1.72.17,1.07-.08-.26-.17-.51-.24-.77a32,32,0,0,1-1.53-8.56,22.92,22.92,0,0,1,.35-4.89,22.24,22.24,0,0,1,.63-2.56c.12-.35.71-2.55,1.21-2.44s.43,2.06.44,2.1c0,.39,0,.79,0,1.19,0,.81-.06,1.63-.13,2.44-.16,1.77-.41,3.52-.62,5.28A30.5,30.5,0,0,0,414.68,423.18Z" style="fill:#fff"></path><path d="M430,415.62a21.13,21.13,0,0,1-6.59,7c-1.39,1-2.83,2-4.24,3a23,23,0,0,0-3.66,2.81l-.14.15a5.77,5.77,0,0,0-.75,1.05.09.09,0,0,1-.07,0c0,.05,0,.09,0,.13s-.06,0-.06,0a.59.59,0,0,1,0-.14v0a.08.08,0,0,1,0-.11.05.05,0,0,1,0,0c0-.05,0-.1,0-.15.43-3.39,2.8-6.83,4.81-9.44a18,18,0,0,1,7.6-6.13c.78-.3,2.55-1.13,3.34-.49S430.36,415,430,415.62Z" style="fill:#407BFF"></path><path d="M427.74,415.63c-.71-.7-2.79,1-3.31,1.45a35.64,35.64,0,0,0-4.32,4.19,31.17,31.17,0,0,0-5.5,8h0l-.08.09c0,.05,0,.1,0,.15l0,0a.09.09,0,0,0,0,.12l.1-.12c.26-.32.53-.63.81-.94l.14-.15a67.26,67.26,0,0,1,6.45-5.69,31.92,31.92,0,0,0,4.29-4.17C426.62,418.18,428.34,416.23,427.74,415.63Zm-.65,1.56c-1.76,2.92-4.8,5.05-7.39,7.17a35.52,35.52,0,0,0-4.91,4.66,33.23,33.23,0,0,1,5.1-7.17,44,44,0,0,1,3.5-3.6,18.35,18.35,0,0,1,2.12-1.7,7.39,7.39,0,0,1,1.44-.78C427.94,415.48,427.39,416.69,427.09,417.19Z" style="fill:#fff"></path><path d="M414.18,436.56a.2.2,0,0,1-.15.09l0,.05a0,0,0,0,1,0,.07s-.05,0-.07,0a29.28,29.28,0,0,1-6.78-9.92,15.49,15.49,0,0,1-1-4.89c0-1.14-.09-3.44.89-4.28,2-1.67,3.76,5.43,4,6.51.49,1.95.81,3.94,1.26,5.9.49,2.15,1.14,4.25,1.79,6.36A.14.14,0,0,1,414.18,436.56Z" style="fill:#407BFF"></path><path d="M414.18,436.56c-.11-.18-.21-.36-.31-.55a33.26,33.26,0,0,1-3.54-9.54,31.34,31.34,0,0,0-1.31-5c-.16-.4-.65-1.91-1.31-1.15-.33.4,0,3.27.08,4a20.83,20.83,0,0,0,1.6,4.88,34.65,34.65,0,0,0,4.51,7.34c.06.06.11.13.16.19a0,0,0,0,0,0-.07l0-.05A.18.18,0,0,0,414.18,436.56Zm-4-6.11a24.49,24.49,0,0,1-1.9-4.73,19,19,0,0,1-.41-2,10.65,10.65,0,0,1-.13-1.59c0-1.3.11-1.64.33-1.68s.32.11.7.89a8.86,8.86,0,0,1,.55,1.57c.2.77.38,1.54.55,2.32.33,1.54.65,3.1,1.1,4.61a25.29,25.29,0,0,0,2.73,6.21A38.6,38.6,0,0,1,410.19,430.45Z" style="fill:#fff"></path><path d="M423,429.75a9.83,9.83,0,0,1-1.81,3.75c-1.63,2.26-3.72,4.14-5.51,6.27-.27.32-.53.65-.78,1,0,0-.23.51-.23.47s0-.19.09-.49h0a39.88,39.88,0,0,1,2.4-8.32,20.13,20.13,0,0,1,2.61-4.09c.51-.57,1.7-1.81,2.59-1.54S423.16,429,423,429.75Z" style="fill:#407BFF"></path><path d="M421.56,428.83c-.95-.59-3.42,3.82-3.75,4.38a28.32,28.32,0,0,0-2.82,6.72l-.21.8c0,.3-.09.48-.09.49a5.18,5.18,0,0,0,.23-.47l.13-.17c.21-.28.43-.55.65-.8,1.07-1.61,2.17-3.19,3.21-4.82a25.93,25.93,0,0,0,2-3.66C421,431,422,429.09,421.56,428.83Zm-.27,1.25c-1.36,3.83-4.14,6.85-6.26,10.25l-.1.16c0-.09.05-.2.09-.3a31.37,31.37,0,0,1,2.24-5.59,29.58,29.58,0,0,1,1.9-3.15,13.63,13.63,0,0,1,1.18-1.64c.19-.22.76-.79,1-.7S421.38,429.82,421.29,430.08Z" style="fill:#fff"></path><path d="M432.62,398.12c-2.84,6.53-10.3,9.57-13.53,15.87l0,0c-.1.19-.19.39-.28.59a.14.14,0,0,1-.22,0,.1.1,0,0,1,0-.11l.07-.14a33.79,33.79,0,0,1,4-11.43,17.21,17.21,0,0,1,7-7.41c.76-.39,2.25-1.22,3.1-.57S433,397.32,432.62,398.12Z" style="fill:#407BFF"></path><path d="M430.06,398.4c-.36-.26-.91.06-1.22.22a10.54,10.54,0,0,0-2.15,1.48,17.56,17.56,0,0,0-3.44,4.09,36.72,36.72,0,0,0-4.06,8.21c-.21.66-.4,1.32-.56,2l-.06.25a.14.14,0,0,0,.22,0c.08-.2.18-.38.27-.57a.17.17,0,0,1,0-.05,22.37,22.37,0,0,1,2-3.72,50.11,50.11,0,0,1,4.26-5C426,404.58,431.31,399.32,430.06,398.4Zm-.45,1.51a24.94,24.94,0,0,1-3.37,4.09c-1.18,1.32-2.38,2.63-3.54,4a24.67,24.67,0,0,0-2.48,3.4,19.53,19.53,0,0,0-1.56,3.14,29.26,29.26,0,0,1,1.11-3.27l0,0a48.56,48.56,0,0,1,2.76-5.49.43.43,0,0,1,0-.07,22.24,22.24,0,0,1,3.14-4.39,12.67,12.67,0,0,1,2.24-1.9c.93-.61,1.75-1,2-.7S429.87,399.46,429.61,399.91Z" style="fill:#fff"></path><path d="M422.69,405.78c-.85,1.84-1.67,3.71-2.47,5.58-.39.88-.76,1.76-1.14,2.63a.17.17,0,0,0,0,.05c-.14.32-.27.64-.41.95a58.81,58.81,0,0,0-3.33,8.83,26.77,26.77,0,0,0-.69,4.91c0,.17,0,.34,0,.51h0c0,.09,0,.18,0,.28v.15c-.05,1.43,0,2.87,0,4.27,0,1.95.2,3.88.39,5.81a1,1,0,0,0,0,.17l0,.26c0,.05,0,.09,0,.14a2,2,0,0,1,0,.25c.06.62.12,1.24.17,1.86h-.59a38,38,0,0,1-.72-5.75.41.41,0,0,1,0-.11l0-.57,0-.69c0-.56,0-1.11,0-1.66a40.33,40.33,0,0,1,.68-9.63l.06-.26,0-.11a1.16,1.16,0,0,1,0-.18l.07-.3.15-.52.05-.15a63.27,63.27,0,0,1,3.28-7.93l.66-1.4c.13-.26.25-.52.37-.78l.58-1.17,0,0c.91-1.84,1.86-3.65,2.76-5.49C422.59,405.62,422.74,405.69,422.69,405.78Z" style="fill:#407BFF"></path></g><g id="freepik--Mailbox--inject-65"><rect x="395.21" y="152.8" width="12.89" height="289.65" style="fill:#37474f"></rect><rect x="408.1" y="152.8" width="6.99" height="289.65" transform="translate(823.2 595.24) rotate(180)" style="fill:#455a64"></rect><rect x="394.02" y="149.15" width="14.08" height="3.64" style="fill:#263238"></rect><rect x="408.1" y="149.15" width="8.21" height="3.64" transform="translate(824.41 301.95) rotate(180)" style="fill:#37474f"></rect><rect x="396.86" y="145.93" width="11.24" height="3.23" style="fill:#37474f"></rect><rect x="408.1" y="145.93" width="5.62" height="3.23" style="fill:#455a64"></rect><path d="M412.61,138.66a7.27,7.27,0,1,1-7.27-7.28A7.27,7.27,0,0,1,412.61,138.66Z" style="fill:#37474f"></path><path d="M352.68,177.84v31H319.27V178.13a16.42,16.42,0,0,1,16.42-16.43h.85A16.14,16.14,0,0,1,352.68,177.84Z" style="fill:#407BFF"></path><path d="M405.34,175.32v33.55H352.68v-31a16.14,16.14,0,0,0-16.14-16.14h55.18A13.62,13.62,0,0,1,405.34,175.32Z" style="fill:#407BFF"></path><path d="M405.34,175.32v33.55H352.68v-31a16.14,16.14,0,0,0-16.14-16.14h55.18A13.62,13.62,0,0,1,405.34,175.32Z" style="fill:#020100;opacity:0.1"></path><path d="M361.82,177.24v31.63h-2.15v-31a16.14,16.14,0,0,0-16.13-16.14h2.74A15.54,15.54,0,0,1,361.82,177.24Z" style="fill:#020100;opacity:0.1"></path><path d="M400.45,177.24v31.63H398.3v-31a16.14,16.14,0,0,0-16.13-16.14h2.74A15.54,15.54,0,0,1,400.45,177.24Z" style="fill:#020100;opacity:0.1"></path><g style="opacity:0.1"><path d="M373.51,200.55v-5l-1.82,3.64h-1l-1.81-3.64v5h-1.94v-8.36H369l2.17,4.36,2.17-4.36h2.09v8.36Z" style="fill:#020100"></path><path d="M379.31,192.19h1.75l3,8.36h-2l-.65-1.88h-2.6l-.64,1.88h-2Zm1.85,5.15-1-3-1,3Z" style="fill:#020100"></path><path d="M384.93,200.55v-8.36h1.93v8.36Z" style="fill:#020100"></path><path d="M388.46,200.55v-8.36h1.93v6.66h4.05v1.7Z" style="fill:#020100"></path></g><path d="M351,178.6v27.86H321v-27.6a14.75,14.75,0,0,1,14.75-14.75h.76A14.49,14.49,0,0,1,351,178.6Z" style="fill:#020100;opacity:0.30000000000000004"></path><path d="M315.56,212l3.71-3.1h33.41l-3.36,2.81c-10.81,9.07-25.6,16.43-34.67,16.43h-2.18C303.56,228.11,302.27,222.23,315.56,212Z" style="fill:#37474f"></path><path d="M352.67,208.87l-3.35,2.81c-10.81,9.07-25.6,16.43-34.67,16.43h-2.37c-8.74-.09-9.92-6,3.28-16.14l3.7-3.1Z" style="fill:#37474f"></path><path d="M350.2,208.87l-3.35,2.81c-10.77,9-25.49,16.37-34.57,16.43-8.74-.09-9.92-6,3.28-16.14l3.7-3.1Z" style="fill:#455a64"></path><polygon points="400.17 222.63 400.17 231.16 382.44 208.87 389.23 208.87 400.17 222.63" style="fill:#455a64"></polygon><polygon points="400.17 231.16 397.67 231.16 379.94 208.87 382.44 208.87 400.17 231.16" style="fill:#37474f"></polygon><path d="M372.73,147.27v7.9H365.5v29.67a2.5,2.5,0,0,1-2.5,2.5h0a2.5,2.5,0,0,1-2.5-2.5V145.29l5,.81Z" style="fill:#455a64"></path><path d="M372.73,147.27v7.9H365.5v29.67a2.5,2.5,0,0,1-2,2.44h0a2.24,2.24,0,0,1-.52.06,1.87,1.87,0,0,1-.42,0,2.41,2.41,0,0,1-1.35-.69,2.52,2.52,0,0,1-.73-1.77V145.29l5,.81Z" style="fill:#455a64"></path><path d="M363,187.34h-1.95a2.13,2.13,0,0,1-2.15-2V145.29h1.6v39.55a2.52,2.52,0,0,0,.73,1.77A2.92,2.92,0,0,0,363,187.34Z" style="fill:#37474f"></path><path d="M351,178.6v19.59l-5-2.09-2.92-1.23-1.29-.54L341,194l0,0-.89-.37-.27-.11-.35-.15-7.34-3.1,1.55-3.69.3-.7,1.33-3.14.53-1.28.22-.5.92-2.2,1-2.48,4-9.56,5.24,2.21a14.32,14.32,0,0,1,3.25,6A14.48,14.48,0,0,1,351,178.6Z" style="fill:#ebebeb"></path><path d="M351,183.7v2.18l-.12-.25-.05-.11-.09-.19a1.74,1.74,0,0,1-.1-.19l-1.19-2.45c0-.1-.1-.2-.15-.31l-1-2.2c-.22-.44-.43-.88-.64-1.33l-.06-.14-1.59-3.35c-.39-.85-.79-1.7-1.18-2.56-.92-2-1.87-4.06-2.76-6.13,1.08,1.91,2.09,3.85,3.14,5.78.5,1,1,1.89,1.5,2.84l1.58,3,.21.41.67,1.3.82,1.61c0,.08.09.16.13.24Z" style="fill:#dbdbdb"></path><path d="M351,185.5v.09l-.12,0-.3.09c-1.27.39-2.54.74-3.82,1.07l-.42.1-.93.23-.11,0-1.1.26-2.15.48c-1.52.32-3,.62-4.57.88l-.18,0-.93.15c-1.29.22-2.58.4-3.88.54,1.12-.37,2.24-.69,3.37-1l1-.26.31-.09c1.56-.4,3.14-.75,4.71-1.1l1.41-.3c.42-.07.83-.16,1.25-.24s1-.2,1.52-.28l.58-.1.32-.06c1.16-.2,2.33-.38,3.52-.52l.36,0Z" style="fill:#dbdbdb"></path><rect x="325.1" y="180.54" width="25.88" height="25.56" style="fill:#fff"></rect><path d="M351,192.34v1.25l-.24.21-.46.41a2,2,0,0,0-.16.14l-.14.13-.1.09q-1.94,1.67-3.87,3.36l-.53.45-.23.19-.23-.19-1.94-1.69-.95-.83c-.2-.18-.41-.35-.61-.54a.53.53,0,0,1-.14-.12l-.7-.6,0,0-.09-.08-.16-.14-.16-.13q-2-1.69-3.88-3.42l-.52-.46-.83-.74-1.38-1.23c-1-.86-1.93-1.73-2.88-2.61l-.34-.3-.37-.33c-1.64-1.53-3.3-3-4.92-4.58,1.73,1.33,3.43,2.74,5.14,4.1.13.11.27.21.4.33l.43.35,2.84,2.33,1.43,1.19,1.48,1.23.63.53q1.79,1.49,3.55,3h0l.26.22.69.59.31.26.58.5,2.39,2c1.4-1.2,2.81-2.41,4.22-3.6h0l.42-.36c.27-.23.53-.46.81-.68Z" style="fill:#dbdbdb"></path><path d="M341.07,194.18l-.05,0-.64.54c-1,.85-2,1.67-3.1,2.46-1.28,1-2.59,1.92-3.91,2.85s-2.66,1.82-4,2.69-2.74,1.73-4.16,2.51c1.22-1.07,2.5-2.07,3.78-3.05s2.6-1.92,3.91-2.85,2.67-1.83,4-2.7c1.08-.69,2.18-1.38,3.31-2l.79-.44Z" style="fill:#dbdbdb"></path><path d="M351,195.07v.42l-.86-.72-.24-.2-.4-.34-.05,0,.07,0c.16.1.32.18.48.27l.3.18Z" style="fill:#dbdbdb"></path></g></svg>